<svg width="613" height="894" viewBox="0 0 613 894" fill="none" xmlns="http://www.w3.org/2000/svg">
<g opacity="0.15">
<path d="M616.374 553.263C555.695 691.939 382.499 935.111 284.964 841.11L300.396 860.3V868.096C459.059 970.342 652.931 743.662 720.351 562.558C687.39 561.059 652.481 558.06 616.524 553.263H616.374Z" fill="#959CA1"/>
<path d="M613.677 497.641C539.515 497.041 468.498 489.995 405.273 478.151C463.255 497.191 528.727 513.083 598.096 523.727C834.817 560.608 1026.74 525.227 1027.04 444.869C1027.04 428.828 1019.4 412.186 1005.32 395.545C965.762 455.963 809.497 499.14 613.677 497.491" fill="#959CA1"/>
<path d="M314.18 876.791C170.649 802.88 245.111 537.52 292.605 431.976C410.966 169.015 622.966 -29.0297 746.72 3.50309C593.151 15.9465 254.101 536.471 314.18 876.641V876.791Z" fill="#E51937"/>
<path d="M1021.65 468.108C1034.38 439.923 1035.43 408.14 1029.59 388.95C990.483 260.318 794.064 221.339 503.407 261.218C263.689 294.051 62.3266 409.639 0 494.644C94.0891 424.781 269.532 364.513 470.595 340.826C753.612 307.394 1019.55 389.25 1021.65 468.258" fill="#F4A899"/>
</g>
</svg>
