<svg width="1033" height="894" viewBox="0 0 1033 894" fill="none" xmlns="http://www.w3.org/2000/svg">
<g opacity="0.15">
<path d="M741.326 181.452C775.186 179.203 804.552 179.503 829.273 181.152C826.276 85.9523 798.559 14.5901 741.326 2.89624L642.293 27.4832C695.78 43.6747 728.442 101.994 741.326 181.452Z" fill="#959CA1"/>
<path d="M616.374 553.704C555.695 692.38 382.499 935.552 284.964 841.551L300.396 860.741V868.537C459.059 970.783 652.931 744.103 720.351 562.999C687.39 561.5 652.481 558.501 616.524 553.704H616.374Z" fill="#959CA1"/>
<path d="M613.677 498.082C539.515 497.483 468.498 490.436 405.273 478.593C463.255 497.633 528.727 513.524 598.096 524.169C834.817 561.049 1026.74 525.668 1027.04 445.31C1027.04 429.269 1019.4 412.628 1005.32 395.986C965.762 456.404 809.497 499.582 613.677 497.932" fill="#959CA1"/>
<path d="M314.18 877.232C170.649 803.321 245.111 537.962 292.605 432.418C410.966 169.457 622.966 -28.5884 746.72 3.94437C593.151 16.3878 254.101 536.912 314.18 877.082V877.232Z" fill="#E51937"/>
<path d="M1021.65 468.55C1034.38 440.365 1035.43 408.582 1029.59 389.392C990.483 260.76 794.064 221.781 503.407 261.659C263.689 294.492 62.3266 410.081 0 495.086C94.0891 425.223 269.532 364.955 470.595 341.267C753.612 307.835 1019.55 389.692 1021.65 468.7" fill="#F4A899"/>
</g>
</svg>
