<svg width="91" height="78" viewBox="0 0 91 78" fill="none" xmlns="http://www.w3.org/2000/svg">
<path d="M64.6501 15.7963C67.603 15.6 70.1639 15.6261 72.3198 15.7701C72.0585 7.45969 69.6413 1.23016 64.6501 0.209351L56.0135 2.35566C60.6781 3.76908 63.5264 8.86002 64.6501 15.7963Z" fill="#959CA1"/>
<path d="M53.7531 48.292C48.4614 60.3977 33.3573 81.6252 24.8513 73.4195L26.1971 75.0947V75.7752C40.0339 84.7007 56.9412 64.9128 62.8209 49.1034C59.9464 48.9725 56.902 48.7108 53.7662 48.292H53.7531Z" fill="#959CA1"/>
<path d="M53.518 43.4366C47.0503 43.3842 40.8571 42.7691 35.3433 41.7352C40.3998 43.3973 46.1096 44.7846 52.1591 45.7138C72.8032 48.9332 89.5407 45.8446 89.5668 38.8299C89.5668 37.4295 88.9004 35.9769 87.6722 34.5242C84.2228 39.7983 70.5951 43.5675 53.518 43.4235" fill="#959CA1"/>
<path d="M27.3992 76.5343C14.8821 70.0823 21.3758 46.9178 25.5177 37.7044C35.8398 14.7494 54.328 -2.53889 65.1205 0.30104C51.7279 1.38728 22.1598 46.8262 27.3992 76.5212V76.5343Z" fill="#E51937"/>
<path d="M89.0964 40.8583C90.207 38.3979 90.2985 35.6234 89.7889 33.9483C86.3787 22.7194 69.2493 19.3167 43.9014 22.7979C22.996 25.664 5.43542 35.7543 0 43.1748C8.20539 37.0761 23.5056 31.815 41.04 29.7473C65.7215 26.8288 88.9135 33.9744 89.0964 40.8714" fill="#F4A899"/>
</svg>
