<svg width="235" height="98" viewBox="0 0 235 98" fill="none" xmlns="http://www.w3.org/2000/svg">
<path fill-rule="evenodd" clip-rule="evenodd" d="M31.8985 47.3874C26.7209 58.8575 18.6034 87.6957 34.2504 95.728V95.7118L34.2394 95.6491C51.241 104.491 71.3895 80.6979 78.5293 61.5785C74.9361 61.4156 71.1305 61.0897 67.2105 60.5684H67.1942C61.1406 74.3605 44.814 97.6633 33.9376 93.6888C31.6625 76.5483 38.1657 55.6261 47.4349 37.9805C48.7133 37.8006 50.0028 37.634 51.3021 37.4814C75.4222 34.641 98.4043 39.458 107.396 45.7981C100.953 51.0915 85.5769 54.6636 66.9002 54.5068V54.5231C58.8153 54.4579 51.0735 53.6922 44.1809 52.4051C50.5018 54.4742 57.6393 56.2013 65.2015 57.3581C88.4855 60.9743 107.794 58.1976 111.37 51.2058C111.372 51.2473 111.374 51.2888 111.375 51.3303V51.314C112.763 48.251 112.878 44.7969 112.241 42.7114C107.978 28.7322 86.5652 24.4961 54.8791 28.83C54.0617 28.9416 53.2485 29.0619 52.4397 29.1908C59.0924 18.3889 66.5044 9.55788 72.9283 4.7491C77.0541 7.47817 79.6623 13.0209 80.816 20.1133C84.5072 19.8689 87.7085 19.9015 90.4035 20.0807C90.0859 10.0216 87.2206 2.41139 81.3274 0.829151C81.353 0.826838 81.3785 0.824653 81.404 0.822596C70.5094 -2.03249 53.3413 11.4534 40.3415 31.7995C20.8623 37.1075 5.48764 46.7367 0 54.1978C7.69239 48.5039 20.3729 43.3963 35.4787 40.1123C34.2169 42.4762 33.0192 44.9052 31.8985 47.3874Z" fill="#868686" fill-opacity="0.5"/>
<path d="M127.61 74.0586L136.43 32.6587H158.039C166.793 32.6587 168.279 38.7685 166.548 46.8497C164.997 53.9696 160.244 60.389 152.257 60.389H138.325L135.466 74.0424H127.61V74.0586ZM151.309 53.8556C154.576 53.8556 156.912 51.4769 157.924 46.7845C159.002 41.7338 157.81 39.3061 154.592 39.3061H142.865L139.762 53.8556H151.309Z" fill="#868686" fill-opacity="0.5"/>
<path d="M187.667 67.9486C188.663 69.6919 189.578 71.7122 190.688 74.0421H184.727C184.286 73.0156 183.845 71.9892 183.371 71.0768C179.68 73.4555 176.658 74.596 172.248 74.596C164.703 74.596 162.204 72.7387 163.429 66.8407C164.343 62.686 167.038 59.9488 172.363 59.7044C167.512 59.3134 167.397 56.7717 168.198 53.1222C169.194 48.3321 171.889 45.7578 179.353 45.7578C186.817 45.7578 188.516 47.8596 187.487 52.6822C186.736 56.3318 184.792 58.8572 179.745 59.2645C181.444 59.4275 183.192 60.7309 185.298 64.2501C186.687 62.5557 187.716 60.5354 188.189 58.3521H193.465C192.714 61.7899 190.574 65.1625 187.634 67.9323L187.667 67.9486ZM181.428 67.5576C179.451 63.7613 177.573 61.6107 175.237 61.6107C171.709 61.6107 169.831 62.8815 169.161 66.0912C168.492 69.252 169.325 70.3273 173.13 70.3273C176.462 70.3273 178.569 69.6104 181.428 67.5576ZM182.032 53.6924C182.587 50.9552 181.558 50.1243 178.455 50.1243C175.352 50.1243 173.963 50.9226 173.375 53.6435C172.787 56.4622 173.653 57.5212 176.626 57.5212C179.598 57.5212 181.428 56.4948 182.032 53.6761V53.6924Z" fill="#868686" fill-opacity="0.5"/>
<path d="M223.126 56.4783H214.077L215.498 49.8797H232.583L227.634 73.097C224.008 74.1723 217.328 74.8729 212.509 74.8729C199.345 74.8729 194.118 69.8221 197.679 52.9591C201.305 36.0309 209.292 31.6318 222.799 31.6318C226.556 31.6318 231.962 32.2835 235 33.1797L231.897 40.0063C229.871 39.2406 224.694 38.7518 221.901 38.7518C212.493 38.7518 208.736 40.2996 206.058 53.008C203.314 65.7163 206.303 67.7366 215.351 67.7366C217.311 67.7366 219.516 67.4434 220.823 67.1501L223.077 56.462L223.126 56.4783Z" fill="#868686" fill-opacity="0.5"/>
</svg>
