<svg width="271" height="78" viewBox="0 0 271 78" fill="none" xmlns="http://www.w3.org/2000/svg">
<g clip-path="url(#clip0_3_19)">
<path d="M64.6501 15.7963C67.603 15.6 70.1639 15.6261 72.3198 15.7701C72.0585 7.45969 69.6413 1.23016 64.6501 0.209351L56.0135 2.35566C60.6781 3.76908 63.5264 8.86002 64.6501 15.7963Z" fill="#959CA1"/>
<path d="M53.7531 48.292C48.4614 60.3977 33.3573 81.6252 24.8513 73.4195L26.1971 75.0947V75.7752C40.0339 84.7007 56.9412 64.9128 62.8209 49.1034C59.9464 48.9725 56.902 48.7108 53.7662 48.292H53.7531Z" fill="#959CA1"/>
<path d="M53.518 43.4366C47.0503 43.3842 40.8571 42.7691 35.3433 41.7352C40.3998 43.3973 46.1096 44.7846 52.1591 45.7138C72.8032 48.9332 89.5407 45.8446 89.5668 38.8299C89.5668 37.4295 88.9004 35.9769 87.6722 34.5242C84.2228 39.7983 70.5951 43.5675 53.518 43.4235" fill="#959CA1"/>
<path d="M27.3992 76.5343C14.8821 70.0822 21.3758 46.9178 25.5177 37.7044C35.8398 14.7494 54.328 -2.53889 65.1205 0.30104C51.7279 1.38728 22.1598 46.8262 27.3992 76.5212V76.5343Z" fill="#E51937"/>
<path d="M89.0964 40.8583C90.207 38.3979 90.2985 35.6234 89.7889 33.9483C86.3787 22.7194 69.2493 19.3167 43.9014 22.7979C22.996 25.664 5.43542 35.7543 0 43.1748C8.20539 37.0761 23.5056 31.815 41.04 29.7473C65.7215 26.8288 88.9135 33.9744 89.0964 40.8714" fill="#F4A899"/>
<path d="M102.084 59.1282L109.14 25.8735H126.426C133.429 25.8735 134.618 30.7813 133.233 37.2725C131.992 42.9917 128.19 48.148 121.8 48.148H110.655L108.369 59.1151H102.084V59.1282ZM121.043 42.9C123.656 42.9 125.524 40.9893 126.334 37.2202C127.197 33.1631 126.243 31.2131 123.669 31.2131H114.287L111.805 42.9H121.043Z" fill="#E51937"/>
<path d="M150.127 54.2205C150.924 55.6208 151.656 57.2436 152.544 59.1151H147.775C147.423 58.2906 147.07 57.4661 146.691 56.7332C143.738 58.644 141.321 59.5601 137.793 59.5601C131.757 59.5601 129.758 58.0681 130.737 53.3305C131.469 49.9933 133.625 47.7946 137.885 47.5983C134.004 47.2842 133.912 45.2426 134.553 42.3111C135.35 38.4634 137.506 36.3956 143.477 36.3956C149.448 36.3956 150.807 38.0839 149.984 41.9577C149.383 44.8893 147.828 46.9178 143.79 47.245C145.149 47.3758 146.547 48.4228 148.233 51.2497C149.343 49.8886 150.166 48.2658 150.545 46.5121H154.766C154.165 49.2735 152.453 51.9825 150.101 54.2074L150.127 54.2205ZM145.136 53.9064C143.555 50.857 142.053 49.1295 140.184 49.1295C137.362 49.1295 135.859 50.1503 135.324 52.7285C134.788 55.2674 135.454 56.1312 138.499 56.1312C141.164 56.1312 142.85 55.5554 145.136 53.9064ZM145.62 42.7691C146.064 40.5705 145.241 39.903 142.758 39.903C140.276 39.903 139.165 40.5443 138.695 42.7299C138.224 44.994 138.917 45.8446 141.295 45.8446C143.673 45.8446 145.136 45.0201 145.62 42.756V42.7691Z" fill="#E51937"/>
<path d="M178.493 45.007H171.255L172.392 39.7067H186.059L182.1 58.356C179.199 59.2198 173.855 59.7825 170.001 59.7825C159.469 59.7825 155.288 55.7255 158.137 42.1802C161.037 28.5825 167.427 25.049 178.232 25.049C181.237 25.049 185.562 25.5724 187.992 26.2922L185.51 31.7758C183.89 31.1607 179.748 30.7681 177.513 30.7681C169.987 30.7681 166.982 32.0114 164.84 42.2194C162.644 52.4275 165.035 54.0503 172.274 54.0503C173.842 54.0503 175.606 53.8147 176.651 53.5792L178.454 44.9939L178.493 45.007Z" fill="#E51937"/>
<path d="M202.509 27.8628L200 39.7068H197.766L200.274 27.8628H202.509Z" fill="#959CA1"/>
<path d="M204.416 39.7067H202.313L204.05 31.5533C205.187 31.1476 206.912 30.8074 208.297 30.8074C210.727 30.8074 211.602 31.7758 210.949 34.8906L209.93 39.7198H207.826L208.793 35.1131C209.198 33.1893 208.95 32.7181 207.447 32.7181C206.899 32.7181 206.402 32.7835 205.866 32.9275L204.429 39.7198L204.416 39.7067Z" fill="#959CA1"/>
<path d="M219.024 32.9275C218.397 32.705 217.456 32.5218 216.594 32.5218C215.561 32.5218 215.013 32.6265 214.83 33.5295C214.699 34.1184 215.039 34.3278 216.411 34.4587C218.449 34.6811 219.233 35.3224 218.867 37.063C218.397 39.3009 216.763 39.9553 214.555 39.9553C213.641 39.9553 212.321 39.7852 211.55 39.4973L212.347 37.8352C212.922 38.0577 213.954 38.2409 214.83 38.2409C215.979 38.2409 216.567 38.0838 216.75 37.1939C216.881 36.5788 216.594 36.2909 215.117 36.16C213.249 36.003 212.347 35.4795 212.726 33.6996C213.196 31.4617 214.843 30.8335 217.038 30.8335C217.939 30.8335 219.037 31.0167 219.834 31.3046L219.024 32.9536V32.9275Z" fill="#959CA1"/>
<path d="M227.138 31.0691H229.241L227.517 39.2225C226.367 39.6282 224.629 39.9684 223.257 39.9684C220.827 39.9684 219.951 39 220.605 35.8852L221.637 31.056H223.741L222.761 35.6627C222.356 37.5866 222.604 38.0577 224.08 38.0577C224.642 38.0577 225.152 37.9923 225.687 37.8352L227.125 31.056L227.138 31.0691Z" fill="#959CA1"/>
<path d="M231.24 31.0691H233.344L233.213 31.7104C233.618 31.2393 234.363 30.8074 235.604 30.8074C235.892 30.8074 236.179 30.8205 236.467 30.8597L236.049 32.8621C235.761 32.7966 235.356 32.7443 234.977 32.7443C233.932 32.7443 232.913 33.0846 232.795 33.7127L231.528 39.7067H229.424L231.254 31.056L231.24 31.0691Z" fill="#959CA1"/>
<path d="M238.766 39.9161C236.898 39.9161 235.866 39.3272 235.866 37.3641C235.866 36.8144 235.957 36.1731 236.101 35.4272C236.833 31.8805 238.361 30.8074 241.21 30.8074C242.464 30.8074 244.006 31.056 244.855 31.4486L243.653 37.0631C243.601 37.2986 243.562 37.5342 243.562 37.7436C243.562 38.2017 243.718 38.5943 244.071 38.9869L242.268 40.0208C241.811 39.8507 241.458 39.3533 241.367 38.9346C240.779 39.5104 239.812 39.9161 238.753 39.9161H238.766ZM242.464 32.8359C242.007 32.6527 241.38 32.548 240.857 32.548C239.367 32.548 238.793 32.9537 238.283 35.401C238.152 35.9899 238.074 36.4611 238.074 36.8275C238.074 37.809 238.544 38.097 239.629 38.097C240.556 38.097 241.432 37.7044 241.563 37.0631L242.464 32.8359Z" fill="#959CA1"/>
<path d="M247.233 39.7067H245.13L246.854 31.5533C247.991 31.1476 249.716 30.8074 251.101 30.8074C253.531 30.8074 254.406 31.7758 253.753 34.8906L252.734 39.7198H250.63L251.597 35.1131C252.002 33.1893 251.754 32.7181 250.251 32.7181C249.703 32.7181 249.193 32.7835 248.67 32.9275L247.233 39.7198V39.7067Z" fill="#959CA1"/>
<path d="M261.318 39.5104C260.586 39.7852 259.424 39.9554 258.6 39.9554C255.974 39.9554 254.55 38.8953 255.295 35.3486C256.04 31.8151 257.921 30.8074 260.534 30.8074C261.37 30.8074 262.481 30.9775 263.082 31.2131L262.22 33.0191C261.723 32.8097 260.992 32.6396 260.299 32.6396C258.77 32.6396 257.973 32.9799 257.464 35.3748C256.967 37.6651 257.594 38.1101 259.123 38.1101C259.855 38.1101 260.639 37.9268 261.227 37.7044L261.318 39.5104Z" fill="#959CA1"/>
<path d="M269.249 39.4712C268.335 39.7591 267.028 39.9423 266.139 39.9423C263.644 39.9423 262.167 38.8822 262.912 35.3356C263.644 31.8675 265.395 30.7943 267.903 30.7943C270.634 30.7943 271.614 31.7235 270.582 35.9245H265.003C264.624 37.7829 265.251 38.1493 266.767 38.1493C267.381 38.1493 268.544 37.9923 269.262 37.796V39.4581L269.249 39.4712ZM265.369 34.3279H269.001C269.262 32.7967 268.883 32.4695 267.681 32.4695C266.362 32.4695 265.813 32.8883 265.369 34.3279Z" fill="#959CA1"/>
<path d="M203.776 55.346C203.279 57.6755 201.947 58.5916 200.039 58.5916H193.571L196.08 46.7477H202.443C204.795 46.7477 205.109 47.847 204.73 49.5876C204.403 51.1581 203.841 52.1396 201.698 52.3228C203.933 52.4275 204.142 53.5792 203.763 55.346H203.776ZM199.948 56.7071C200.758 56.7071 201.215 56.1051 201.437 55.045C201.672 53.9195 201.424 53.2913 200.601 53.2913H196.942L196.211 56.7071H199.948ZM197.334 51.4722H200.967C201.711 51.4722 202.09 50.9225 202.273 50.0457C202.482 49.0903 202.326 48.6584 201.555 48.6584H197.922L197.321 51.4853L197.334 51.4722Z" fill="#959CA1"/>
<path d="M206.833 49.9409H208.937L208.806 50.5822C209.211 50.1111 209.956 49.6792 211.197 49.6792C211.485 49.6792 211.772 49.6923 212.06 49.7315L211.642 51.7339C211.354 51.6685 210.949 51.6161 210.57 51.6161C209.525 51.6161 208.506 51.9564 208.388 52.5846L207.121 58.5785H205.017L206.846 49.9279L206.833 49.9409Z" fill="#959CA1"/>
<path d="M211.694 54.2205C212.439 50.6869 214.033 49.6792 216.763 49.6792C219.494 49.6792 220.683 50.6869 219.938 54.2205C219.194 57.7671 217.613 58.8272 214.83 58.8272C212.047 58.8272 210.949 57.7802 211.694 54.2205ZM213.876 54.2597C213.366 56.6547 213.719 57.1258 215.195 57.1258C216.672 57.1258 217.26 56.6547 217.769 54.2597C218.292 51.7732 217.926 51.3936 216.411 51.3936C214.895 51.3936 214.398 51.7862 213.863 54.2597H213.876Z" fill="#959CA1"/>
<path d="M226.445 58.5916C225.086 55.7517 224.224 54.2205 223.793 54.0242L222.826 58.5916H220.722L223.322 46.3158H225.426L223.793 54.0111C224.355 53.6185 225.805 52.2312 228 49.9279H230.496C228.353 52.1658 226.876 53.5007 226.354 53.8541C226.733 54.1289 227.673 55.7124 228.915 58.5785H226.432L226.445 58.5916Z" fill="#959CA1"/>
<path d="M236.663 58.356C235.748 58.644 234.442 58.8272 233.553 58.8272C231.058 58.8272 229.581 57.7802 230.326 54.2205C231.058 50.7524 232.808 49.6792 235.317 49.6792C238.048 49.6792 239.028 50.6084 237.996 54.8094H232.416C232.037 56.6678 232.665 57.0342 234.18 57.0342C234.794 57.0342 235.957 56.8772 236.676 56.6809V58.343L236.663 58.356ZM232.782 53.1997H236.415C236.676 51.6685 236.297 51.3413 235.095 51.3413C233.775 51.3413 233.226 51.7732 232.782 53.1997Z" fill="#959CA1"/>
<path d="M240.583 49.9409H242.686L242.556 50.5822C242.961 50.1111 243.705 49.6792 244.947 49.6792C245.234 49.6792 245.521 49.6923 245.809 49.7315L245.378 51.7339C245.09 51.6685 244.685 51.6161 244.306 51.6161C243.248 51.6161 242.242 51.9564 242.111 52.5846L240.844 58.5785H238.74L240.569 49.9279L240.583 49.9409Z" fill="#959CA1"/>
<path d="M252.002 51.8125C251.375 51.59 250.447 51.4068 249.572 51.4068C248.54 51.4068 247.991 51.5115 247.808 52.4145C247.677 53.0034 248.017 53.2128 249.389 53.3437C251.427 53.5662 252.211 54.2074 251.845 55.948C251.375 58.186 249.742 58.8403 247.534 58.8403C246.619 58.8403 245.299 58.6702 244.528 58.3823L245.325 56.7202C245.9 56.9427 246.933 57.1259 247.808 57.1259C248.958 57.1259 249.533 56.9688 249.729 56.0789C249.859 55.4638 249.572 55.1759 248.095 55.045C246.227 54.888 245.325 54.3645 245.704 52.5846C246.175 50.3467 247.821 49.7185 250.016 49.7185C250.918 49.7185 252.015 49.9017 252.812 50.1896L252.002 51.8386V51.8125Z" fill="#959CA1"/>
</g>
<defs>
<clipPath id="clip0_3_19">
<rect width="271" height="78" fill="white"/>
</clipPath>
</defs>
</svg>
