<svg xmlns="http://www.w3.org/2000/svg" class="map-svg"  viewBox="0 0 907 561" fill="none">
<!-- width="907" height="561" -->
 <style>
        path:hover {
            fill: #D8D8D8;
        }
        path {
        transition: all ease 0.2s
        }
    </style>
<g clip-path="url(#clip0_917_45353)">
<path id="alabama" class="state-shape" d="M617.799 444.1L618.399 444.3L619.699 441.7L621.099 437.5L623.299 438.1L626.299 443.9V444.9L623.699 446.7L626.299 447L631.299 444.6L630.999 437.3L628.599 435.6L626.699 433.7L627.099 429.8L637.199 428.4L661.999 425.6L668.499 425L673.899 425.1L673.399 423L671.999 422.2L670.999 421L671.999 418.5L671.599 413.5L670.099 409.2L670.899 404.3L672.499 399.7L672.299 398.1L670.599 397.4L670.099 393.9L667.499 390.6L665.599 384.3L664.299 377.8L662.599 373L658.899 357.6L655.499 350L654.699 344.6L654.799 342.5L646.099 343.3L623.499 345.4L611.699 346.2L611.499 352.4L611.699 368.5L610.999 398.4L610.699 412L613.399 430.1L614.899 444.3H617.799V444.1Z" fill="#F4A899" stroke="white"><title>Alabama</title></path>
<path id="arkansas" class="state-shape" d="M578.102 328.1L571.902 327.4L572.802 324.4L575.802 321.9L576.402 319.7L574.702 316.9L543.902 318.1L521.402 318.8L498.602 319.1L500.002 325.8L500.102 334L501.402 344.5L501.702 381.3L503.702 382.8L506.602 381.6L509.402 382.8L509.802 392.5L534.102 392.3L559.902 391.5L560.802 389.7L560.502 386L558.902 383L560.302 381.6L558.902 379.5L559.602 377.2L560.702 371.5L563.302 369.3L562.502 367.2L566.402 361.8L568.802 360.7L568.702 359.1L568.202 357.5L571.002 351.9L573.402 350.8L573.602 347.6L575.602 346.3L576.502 342.3L575.202 338.4L579.202 336.1L579.502 334.1L580.702 330.1L581.602 327.1L578.102 328.1Z" fill="#F4A899" stroke="white"><title>Arkansas</title></path>
<path id="arizona" class="state-shape" d="M141.999 370.1L141.699 371.5L142.199 372.5L160.399 382.8L172.099 390.1L186.299 398.4L202.499 408L214.399 410.3L238.899 412.9L244.699 374.7L251.499 323.5L255.699 293.6L231.999 290.1L173.499 279.5L173.299 280.6L170.799 296.5L168.799 300.2L166.099 300L164.899 297.5L162.399 297.1L161.199 296L160.099 296.1L158.099 297.7L157.799 304.3L157.499 305.7L156.999 318L155.599 320.3L155.199 323.5L157.899 328.3L158.999 333.6L159.699 334.7L160.799 335.6L160.399 337.9L158.799 339.1L155.499 340.6L153.999 342.3L152.499 345.8L151.999 350.5L149.099 353.3L147.299 354.2L147.199 359.8L146.599 361.3L147.099 362.1L150.899 362.5L149.999 365.4L148.399 367.7L144.799 368.1L141.999 370.1Z" fill="#F4A899" stroke="white"><title>Arizona</title></path>
<path id="california" class="state-shape" d="M130.1 366.5L111.1 363.9L101.5 362.5L101 360.8V351.7L100.7 348.6L98.2 344.6L97.4 342.4L93.6 338.3L90.8 333.8L88.2 333.6L85.1 332.8L84.8 331.8L86.2 331.2L85.6 328.1L84.2 326.1L79.6 325.3L75.8 323.3L74.7 321.1L72.2 316.5L69.4 313.5H66.6L62.8 311.5L58.5 309.8L54.5 309.3L52.2 306.7L52.7 304.9L54.4 298.1L55.2 296.3V294L53.7 293L53.2 290.2L51.8 287.7L48.5 282.1L47.2 279.1L45.8 274.6L44.3 269.5L41.2 265.3L40.7 262.5L41.5 258.7H42.6L44.6 257.2L45.7 253.7L44.7 251.1L42.1 250.6L40.3 248.1L38.3 244.5L38.1 236.6L38.7 234.8L39.3 232.6L39.8 230.3L34.3 224.2V222.2L34.6 221.7L34.9 218.6L33.6 214.7L31.4 210.1L28.8 205.8L27.1 202L28.1 198.4L28.7 192.8L30.4 189.8L30.7 183.5L29.6 180L28.1 176L25.5 172L26.3 168.9L27.7 164.9L29.4 164.1L29.7 163L32.7 160.5L37.7 149.1L37.9 142L39.5 137.3L76.8 148.7L101.5 155.1L93.6 185L85.2 216.9L97.4 235.4L138.1 295.5L154.6 320.7L154.2 323.7L156.9 328.7L158 333.9L159 335.3L159.7 335.9L159.5 337.3L158.2 338.3L154.9 339.8L153.1 341.8L151.5 345.6L151 350.1L148.5 352.5L146.3 353.6L146.2 359.6L145.6 361.4L146.6 363L149.5 363.3L149.1 364.8L147.7 366.7L143.9 367.3L130.1 366.5ZM58.8 319.3L60.1 320.7L59.9 322L56.8 321.9L56.2 320.7L55.6 319.3H58.8ZM60.7 319.3L61.9 318.7L65.4 320.7L68.4 321.9L67.5 322.5L63.2 322.3L61.7 320.8L60.7 319.3ZM80.6 338.4L82.3 340.6L83.1 341.6L84.5 342.2L85.1 340.8L84.1 339.1L81.5 337.2L80.4 337.4L80.6 338.4ZM79.3 346.8L81 349.9L82.2 351.7L80.8 351.9L79.5 350.7C79.5 350.7 78.8 349.3 78.8 348.9V346.8H79.3Z" fill="#F4A899" stroke="white"><title>California</title></path>
<path id="colorado" class="state-shape" d="M378.401 221.5L343.701 218.1L267.401 209.8L265.301 231.1L258.601 279.7L256.801 292.9L289.601 296.7L325.801 300.9L359.301 303.8L373.101 304.4L378.401 221.5Z" fill="#F4A899" stroke="white"><title>Colorado</title></path>
<path id="connecticut" class="state-shape" d="M833.301 178.4L836.801 175.3L838.601 173.3L839.401 173.9L842.001 172.5L847.001 171.4L853.801 168L853.201 163.9L852.401 159.7L850.901 153.9L846.801 155L825.801 159.5L826.401 162.5L827.801 169.5V177.5L826.901 179.5L828.501 181.6L833.301 178.4Z" fill="#F4A899" stroke="white"><title>Connecticut</title></path>
<path id="delaware" class="state-shape" d="M816.301 232.7L815.301 233.2L811.801 230.9L810.101 226.4L808.301 222.9L806.101 221.9L804.101 218.4L804.601 216.5L805.101 214.3L805.201 213.2L804.601 213.3L803.001 214.3L801.001 216L800.801 216.3L802.101 220.3L804.301 225.7L807.901 241.2L812.701 240.9L818.501 239.8L816.301 232.7Z" fill="#F4A899" stroke="white"><title>Delaware</title></path>
<path id="florida" class="state-shape" d="M735.1 423.7L730.1 423L729.4 423.8L730.8 428L730.4 433L726.4 432L726.2 429.3H722.2L717.1 430L685.9 431.8L678 431.5L676.4 429.9L674 425.8H668.3L661.9 426.3L627.8 430.3L627.5 433L629 434.5L631.8 436.4L632.1 444.5L635.3 443.9L641.1 441.9L646.9 441.4L651.1 440.8L658.4 442.5L666.2 446.3L667.7 447.7L670.5 448.8L672 450.6L672.3 453.2L675.4 451.9H679.2L682.7 450.1L686.3 446.6L689.3 446.8L689.8 445.7L689 444.7L689.2 442.9L693.1 442.1H695.6L698.4 443.5L702.4 444.9L704.7 448.5L707.3 449.5L708.4 452.8L711.7 454.3L713.2 456.8L715 457.4L720 458.7L721.3 461.7L724.2 465.3V474.5L722.8 479L723.1 481.6L724.4 486.2L726.1 490.1L726.9 489.6L728.3 485.3L725.8 484.3L725.5 483.7L727 483.1L731.3 484.1L731.5 485.6L728.4 490.9L726.4 493.2L729.9 496.8L732.4 499.8L735.2 504.9L738 508.7L740 513.5L741.7 513.8L743.2 511.8L744.9 512.9L747.4 516.8L748 520.3L751 524.5L751.8 523.2L755.6 523.5L759.1 525.7L762.4 530.7L763.2 534L763.5 536.8L764.6 537.8L765.9 538.3L768.2 537.3L769.6 535.8L773.4 535.6L776.4 534.2L779 531.1L778.5 529.3L778.2 527L778.8 525.2L778.5 523.4L780.8 522.1L781.1 518.8L780.5 517.1L780 505.5L778.7 498.2L774.4 490.3L770.9 484.7L768.4 479.6L765.6 476.8L762.8 469.7L763.5 468.3L764.6 467L763.1 464.2L759.2 460.6L754.6 455.3L751 449.2L745.9 440.1L742.3 430.7L740.1 423.7H735.1ZM752.2 551.6L754.5 551L755.8 550.8L757.2 548.6L759.4 547.1L760.7 547.6L762.3 547.9L762.7 549L759.3 550.2L755.3 551.6L753.1 552.8L752.2 551.6ZM765.2 546.8L766.4 547.9L769 545.9L774.1 541.8L777.7 538L780.1 531.6L781.1 530L781.3 526.7L780.6 527.2L779.6 529.9L778.2 534.3L775.1 539.4L770.9 543.4L767.6 545.2L765.2 546.8Z" fill="#F4A899" stroke="white"><title>Florida</title></path>
<path id="georgia" class="state-shape" d="M735.102 422.7L729.702 422L728.402 423.5L729.902 428L729.602 431.8L727.502 431.2L727.302 428.3H722.302L717.202 429L686.102 430.8L678.702 430.5L677.402 429.3L675.002 425.2L674.202 422L672.702 421.1L672.202 420.6L673.102 418.5L672.702 413.2L671.002 409L671.802 404.3L673.402 399.7L673.202 397.3L671.402 396.6L671.002 393.5L668.302 390.1L666.502 384.1L665.102 377.3L663.502 372.7L659.802 357.3L656.402 349.6L655.602 344.5L655.702 342.3L658.902 342L672.002 340.5L689.902 338.6L696.002 337.5L696.502 338.9L694.402 339.8L693.502 341.9L693.902 343.8L695.202 345.3L699.302 347.9L702.402 347.8L705.502 352.3L706.102 353.8L708.302 356.5L708.802 358.1L713.302 359.8L716.202 361.9L718.402 364.8L720.602 366.1L722.502 367.8L723.902 370.4L725.902 372.2L729.902 373.9L732.502 379.7L734.102 384.6L736.802 385.3L738.802 387.1L740.702 392.6L743.502 394.1L745.102 393.3L745.502 394.5L742.302 400.5L742.802 403L741.402 407L739.202 416.6L740.002 422.7H735.102Z" fill="#F4A899" stroke="white"><title>Georgia</title></path>
<path id="iowa" class="state-shape" d="M548.699 171.4L550.699 173.4L550.999 174.1L548.999 177L549.299 180.9L551.799 184.9L554.799 186.4L557.099 186.7L557.999 188.4L558.199 190.7L560.599 191.7L561.499 192.8L561.999 194.3L565.699 197.5L566.299 199.3L565.599 202.2L563.999 205.8L563.399 208.1L561.399 209.6L559.899 210.1L554.399 211.5L552.899 216.1L553.699 217.8L555.299 219.2L555.099 222.6L553.299 224L552.599 225.7V228L551.199 228.4L549.599 229.8L549.099 231.4L549.499 233L548.199 234L545.999 231.4L544.699 228.7L536.699 229.5L527.099 230.1L479.699 231.3L478.199 227.2L477.799 220.7L476.499 216.6L475.799 211.6L473.699 208L472.699 203.6L470.099 196.1L468.999 190.7L467.599 188.9L466.299 186.1L467.899 182.4L469.099 176.5L466.499 174.4L466.199 172.1L466.899 169.8L468.599 169.5L527.499 168.9L547.899 168.2L548.699 171.4Z" fill="#F4A899" stroke="white"><title>Iowa</title></path>
<path id="idaho" class="state-shape" d="M180.8 21L176.2 37.8L171.9 57.9L168.6 73.5L168.2 82.8L169.4 87.1L172.8 89.7L172.6 93.5L168.8 97.7L164.5 104.1L163.6 106.9L162.4 108L160.7 108.8L156.6 113.9L156.2 116.9L155.8 118L156.4 119L158.9 118.9L160 121.1L157.7 126.7L156.5 130.7L148 164.7L168 169L206.1 176.6L239.7 182.5L244.4 154.3L248.1 131.1L245.5 128.8L245.1 126.3L244.3 125.2L242.3 126.2L241.6 128.7L238.5 129.2L234.7 127.7L231 127.8L228.6 128.5L225.3 127.1L223 127.3L220.7 129.2L218.8 128.1L218.1 124.2L218.8 121.4L216.4 118.6L213.2 116.1L210.6 103.5L210.5 99L210.2 98.9L210 99.3L205.1 102.7L203.5 102.5L200.7 99.2L200.5 96.2L207.2 79.7L206.8 77.8L203.5 76.7L202.9 75.6L200.4 72.3L196 62.4L192.9 60.9L191 56.1L192.3 51.6L189.2 44.3L193.4 23.5L180.8 21Z" fill="#F4A899" stroke="white"><title>Idaho</title></path>
<path id="illinois" class="state-shape" d="M608.4 201L607.6 198.5L606.3 194.9L604.8 193.2L603.4 190.7L603 185.4L587.7 187.1L570.9 188.1H559L559.2 190.1L561.3 191L562.4 192.4L562.8 193.7L566.6 197L567.3 199.3L566.6 202.5L565 206.1L564.2 208.7L561.9 210.5L560.1 211.1L555.1 212.4L553.8 216.4L554.4 217.5L556.2 219.2L556 223.3L554 224.8L553.5 226.1V228.8L551.8 229.4L550.4 230.6L550 231.8L550.4 233.7L548.9 235L548 237.7L548.3 241.5L550.5 248.2L557.2 255.5L562.7 259.1V263.3L563.4 264.5L569.8 265.1L572.4 266.4L571.7 269.8L569.6 275.8L568.8 278.7L570.7 282.3L576.9 287.4L581.5 288.2L583.6 293.1L585.5 296.4L584.6 299.1L586 302.8L587.6 304.8L589.1 304.5L590.1 302.4L592.4 300.8L595.1 299.8L601 302.2L601.5 302V300.9L600.3 298.3L600.7 295.6L603 294.1L606.3 292.9L605.8 291.6L605 289.7L606.2 288.4L607.2 285.8V281.9L607.6 277.2L610 274.3L611.7 270.6L614.1 266.7L613.6 261.6L611.9 258.5L611.6 255.3L612.4 250.2L611.7 243.3L610.6 228.1L609.2 213.3L608.3 202L608.4 201Z" fill="#F4A899" stroke="white"><title>Illinois</title></path>
<path id="indiana" class="state-shape" d="M612.399 202.7L613.799 203.7L614.899 203.4L616.899 201.6L619.299 199.9L633.099 198.8L650.799 197.1L652.299 212L656.999 253.1L656.399 255.9L657.699 257.4L657.899 258.7L655.699 260.2L652.199 261.8L649.099 262.2L648.599 266.8L644.099 270.3L641.299 274.2L641.499 276.5L640.999 277.9H637.599L636.299 276.3L631.299 279.2L631.499 282.2L630.599 282.4L630.099 281.5L627.799 279.9L624.299 281.3L622.999 284.1L621.799 283.5L620.299 281.8L616.099 282.3L610.599 283.3L608.199 284.6V282.1L608.599 277.6L610.799 274.8L612.499 271L615.099 267L614.599 261.4L612.899 258.4L612.599 255.3L613.399 250.2L612.699 243.4L611.799 231.3L609.399 202.3L612.399 202.7Z" fill="#F4A899" stroke="white"><title>Indiana</title></path>
<path id="kansas" class="state-shape" d="M480.298 244.6L438.098 244L398.998 242.8L377.998 242L373.898 304.5L397.298 305.5L440.398 307.5L484.998 308L497.098 307.7L497.798 274L496.598 263.3L494.198 261.4L491.898 258.5L489.698 255L490.298 252.1L491.898 250.7V248.7L491.098 248L488.598 247.8L485.198 244.5H480.298V244.6Z" fill="#F4A899" stroke="white"><title>Kansas</title></path>
<path id="kentucky" class="state-shape" d="M597.2 314.3L609.3 313.6L609.4 309.6H613.5L642.8 306.5L686.3 302.4L691.7 298.9L695.5 296.9L695.6 295.1L701.4 287.6L705.4 284.1L707.4 281.8L704.2 279.9L701.8 277.3L698.9 273.6L698.4 271.5L695.9 270.1L695 268.3L694.8 262.4L692.3 260.5L690.5 259.4L690 257.2L688.7 257.4L686.8 258.6L684.4 261.2L682.6 259.6L680.2 259.1L677.9 260.5H675.7L674 258.6L668.6 258.5L666.9 254.2L664.1 252.8L662.1 253.6L658 253.8L657.5 255.8L658.7 257.2L659 259.2L656.3 261.1L652.6 262.8L650.1 263.2L649.6 267.5L644.9 271L642.4 274.6L642.6 276.7L641.7 278.9L637.4 278.8L636.1 277.5L632.3 279.6L632.5 282.8L630.2 283.4L629.4 282.1L627.8 280.9L625.2 282L623.5 285.4L621.4 284.4L620 282.9L616.4 283.3L611 284.3L608.3 285.6L607.1 288.9L606.1 289.9L607.5 293.5L603.5 294.9L601.7 296.3L601.3 298.4L602.5 300.7V302.8L601 303.2L595.1 300.8L592.9 301.7L591 303.1L590.2 304.8L591.8 307.1L590.9 308.8L590.8 312L588.5 313.3L586.5 314.9L597.2 314.3Z" fill="#F4A899" stroke="white"><title>Kentucky</title></path>
<path id="louisiana" class="state-shape" d="M519.801 462.9L527.601 462.6L537.501 466.1L543.801 467.2L547.401 465.8L550.501 466.9L553.601 467.9L554.401 465.9L551.301 464.8L548.801 465.3L546.201 463.8L547.001 462.4L550.001 461.4L551.701 462.8L553.401 461.8L556.501 462.4L557.901 464.7L558.201 466.9L562.501 467.2L564.201 468.9L563.401 470.4L562.101 471.2L563.601 472.7L571.701 476.2L575.201 474.9L576.201 472.6L578.701 472L580.401 470.6L581.701 471.6L582.501 474.4L580.301 475.2L580.901 475.8L584.201 474.5L586.401 471.2L587.201 470.7L585.201 470.4L586.001 468.9L585.801 467.5L587.801 467L588.901 465.7L589.501 466.5L590.101 469.5L594.101 470.1L598.001 471.9L599.001 473.3H601.801L602.901 474.3L605.101 471.3V469.9H603.801L600.501 467.3L594.901 466.5L591.801 464.3L592.901 461.7L595.101 462L595.301 461.4L593.601 460.4V459.9H596.701L598.401 456.9L597.101 455.1L596.801 452.5L595.401 452.7L593.601 454.7L593.001 457.2L590.001 456.6L589.001 454.9L590.701 453.1L592.501 451.5L590.401 445.2L587.101 441.9L588.101 434.9L587.901 434.4L586.601 434.6L554.701 436L553.901 433.7L554.701 425.5L563.001 411L562.101 408.5L563.401 408.1L563.801 406.2L561.701 404.3L561.801 402.5L559.901 398.2L559.501 393.3L559.601 392.6L534.101 393.4L509.801 393.5L510.201 402.9L510.901 412.1L511.401 415.7L513.901 420L514.801 424.2L518.901 430L519.201 433L519.801 433.8L519.101 441.8L516.401 446.2L517.601 448.5L517.101 451L516.301 458L515.001 460.9L515.201 464.5L519.801 462.9Z" fill="#F4A899" stroke="white"><title>Louisiana</title></path>
<path id="massachusetts" class="state-shape" d="M867.5 160.7L867 158.5L867.8 157.1L870.6 155.7L871.4 158.7L870.9 160.4L868.6 161.8V162.8L870.4 161.4L874.2 157.1L878 155.3L882.1 153.9L881.8 151.6L880.8 148.8L879 146.5L877.3 145.7L875.3 145.9L874.8 146.4L875.8 147.7L877.2 146.9L879.2 148.4L880 151L878.3 152.7L876.1 153.7L872.6 153.2L868.8 147.4L866.6 144.9H864.9L863.8 145.7L862 143.2L862.3 141.8L864.6 136.8L861.8 132.6L858.2 134.3L856.5 137.1L838.9 141.6L825.6 144L825 154.2L825.7 158.9L846.9 154.3L857.7 151.6L859.6 153.1L862.9 157.2L865.7 161.7L867.5 160.7ZM879.6 162.1L881.7 161.4L882.2 159.8L883.2 159.9L884.2 162.1L882.9 162.6L879.1 162.7L879.6 162.1ZM870.5 162.8L872.7 160.3H874.2L875.9 161.7L873.6 162.7L871.5 163.7L870.5 162.8Z" fill="#F4A899" stroke="white"><title>Massachusetts</title></path>
<path id="maryland" class="state-shape" d="M816.702 249L818.302 245.3L818.802 240.7L812.702 241.8L807.102 242.1L803.402 225.9L801.202 220.6L799.802 216.2L778.402 220.3L742.102 227.6L744.002 237.6L748.602 232.9L751.002 232.2L752.302 230.8L754.002 228.2L755.502 228.9L758.002 228.7L760.502 226.7L762.402 225.3L764.402 224.7L765.802 225.8L768.402 227.2L770.202 228.9L771.502 230.2L776.102 231.7L775.502 234.5L781.102 236.5L783.102 234L786.702 236.4L784.702 239.6L784.002 242.8L782.302 245.3V247.3L782.602 248.1L784.502 249.4L787.802 250.5L791.902 250.4L794.902 251.4L796.902 251.7L797.902 249.7L796.502 247.7V246L794.202 244L792.202 238.7L793.502 233.6L793.302 231.6L792.002 230.3C792.002 230.3 793.402 228.8 793.402 228.1C793.402 227.5 793.902 226.1 793.902 226.1L795.702 224.8L797.502 223.3L798.002 224.3L796.602 225.8L795.302 229.4L795.602 230.5L797.302 230.8L797.802 236.1L795.802 237.1L796.102 240.6L796.602 240.4L797.702 238.6L799.202 240.3L797.702 241.6L797.402 244.9L799.902 248.2L803.702 248.7L805.202 247.9L808.302 251.9L809.302 252.3L816.702 249ZM802.702 249.2L803.802 251.6L804.002 253.3L805.102 255.1C805.102 255.1 806.002 254.2 806.002 253.9C806.002 253.6 805.302 250.9 805.302 250.9L804.602 248.7L802.702 249.2Z" fill="#F4A899" stroke="white"><title>Maryland</title></path>
<path id="maine" class="state-shape" d="M846.598 83L847.998 83.4V80.9L848.798 75.6L851.298 71.1L852.698 67.2L850.898 64.9V59.1L851.698 58.1L852.498 55.5L852.298 54.1L852.098 49.5L853.798 44.9L856.598 36.3L858.598 32.3H859.898L861.198 32.5V33.6L862.498 35.8L865.098 36.4L865.898 35.6V34.6L869.798 31.8L871.498 30.1L872.898 30.3L878.698 32.6L880.498 33.6L889.298 62.4H895.098L895.898 64.2L896.098 68.8L898.898 71H899.698L899.898 70.5L899.398 69.4L902.098 68.9L903.898 70.9L906.098 74.5V76.3L904.098 80.8L902.298 81.4L898.998 84.4L894.398 89.7H892.998C892.398 89.7 891.998 87.7 891.998 87.7L890.298 87.9L889.298 89.3L886.998 90.7L885.998 92.1L887.498 93.5L886.998 94.1L886.498 96.7L884.698 96.5V95L884.398 93.7L882.998 94L881.298 90.9L879.298 92.2L880.598 93.6L880.898 94.7L880.098 96L880.398 99L880.598 100.5L879.098 103L876.298 103.5L875.998 106.3L870.898 109.3L869.598 109.8L868.098 108.4L865.098 111.9L866.098 115L864.698 116.3L864.498 120.5L863.398 126.6L861.298 125.7L860.798 122.7L856.898 121.6L856.698 119.2L845.398 83.1L846.598 83ZM881.798 98L883.198 96.6L884.598 97.7L885.198 100L883.598 100.9L881.798 98ZM888.298 92.3L889.998 94.1C889.998 94.1 891.298 94.2 891.298 93.9C891.298 93.6 891.498 92 891.498 92L892.398 91.2L891.598 89.5L889.698 90.2L888.298 92.3Z" fill="#F4A899" stroke="white"><title>Maine</title></path>
<path id="michigan" class="state-shape" d="M633.2 197.8L651.6 196L651.8 197.1L661.3 195.7L672.9 194.1L673 193.5L673.2 192.1L675.2 188.5L677.1 186.9L676.9 182L678.4 180.5L679.5 180.2L679.7 176.7L681.1 173.8L682.2 174.4L682.4 175L683.2 175.2L685 174.2L684.6 165.4L681.5 157.5L679.3 148.7L677 145.6L674.5 143.9L673 145L669.2 146.7L667.4 151.5L664.8 155.1L663.7 155.7L662.3 155.1C662.3 155.1 659.8 153.7 660 153.1C660.2 152.5 660.5 148.3 660.5 148.3L663.8 147L664.6 143.7L665.2 141.2L667.5 139.7L667.2 130.1L665.7 127.9L664.4 127.1L663.6 125.1L664.4 124.3L665.9 124.6L666.1 123.1L663.6 121L662.3 118.5H659.8L655.5 117.1L650.2 113.8H647.6L647 114L646 113.5L643 111.3L640.2 113L637.4 115.2L637.7 118.7L638.7 119L640.7 119.5L641.2 120.3L638.7 121.1L636.2 121.4L634.8 123.1L634.5 125.1L634.8 126.6L635.1 131.9L631.6 133.9L631 133.7V129.6L632.3 127.3L632.9 125L632.1 124.2L630.3 125L629.3 129L626.7 130.1L625 131.9L624.8 132.9L625.4 133.7L624.8 136.2L622.6 136.7V137.8L623.4 140.1L622.3 146L620.8 149.9L621.4 154.4L621.9 155.5L621.1 157.8L620.8 158.6L620.5 161.2L624 167L626.8 173.3L628.2 177.9L627.4 182.4L626.4 188.2L624.1 193.2L623.8 195.8L620.7 198.8L633.2 197.8ZM601.1 128L599.8 126.9L598.1 116.9L594.5 115.6L592.9 113.4L580.8 110.7L578.1 109.6L570.3 107.5L562.8 106.5L559 101.4L559.7 100.9L562.3 100.1L565.8 97.9V96.9L566.4 96.3L572.2 95.3L574.5 93.5L578.7 91.5L578.9 90.2L580.7 87.4L582.4 86.6L583.7 84.9L585.9 82.7L590.1 80.4L594.6 79.9L595.7 81L595.4 82L591.8 83L590.4 86L588.2 86.8L587.7 89.1L585.4 92.2L585.1 94.7L585.9 95.2L586.9 94.1L590.4 91.3L591.7 92.6H593.9L597 93.6L598.4 94.7L599.8 97.7L602.4 100.3L606.2 100.1L607.6 99.1L609.1 100.4L610.6 100.9L611.9 100.1H613L614.5 99.1L618.4 95.6L621.7 94.5L628.1 94.2L632.4 92.4L634.9 91.1L636.3 91.3V96.8L636.8 97.1L639.6 97.9L641.4 97.4L647.3 95.9L648.4 94.8L649.8 95.3V102L652.9 105L654.2 105.6L655.5 106.6L654.2 106.9L653.4 106.6L649.8 106.1L647.8 106.7L645.6 106.5L642.5 107.9H640.8L635.2 106.6L630.2 106.8L628.4 109.3L621.6 109.9L619.3 110.7L618.2 113.7L616.9 114.8L616.4 114.6L615 113.1L610.7 115.4H610.1L609 113.9L608.2 114.1L606.4 118.3L605.4 122.2L602.3 128.9L601.1 128ZM572.6 73.5L574.3 71.5L576.4 70.7L581.6 66.9L583.8 66.3L584.3 66.8L579.4 71.7L576.2 73.5L574.2 74.4L572.6 73.5ZM655.7 104.5L656.3 106.9L659.4 107.1L660.7 105.9C660.7 105.9 660.6 104.5 660.3 104.4C660 104.2 658.8 102.6 658.8 102.6L656.7 102.8L655.2 103L654.9 104.1L655.7 104.5Z" fill="#F4A899" stroke="white"><title>Michigan</title></path>
<path id="minnesota" class="state-shape" d="M459.798 58.8L459.198 62.6V72.5L460.698 77.4L462.498 80.6L462.998 90.2L464.698 103.2L466.398 110.2L466.798 116.4V121.5L465.298 123.2L463.598 124.5V125.9L464.498 127.5L468.498 130.9L469.198 134V168.6L527.298 168L547.698 167.3L547.198 161.5L545.498 159.5L538.598 155.1L535.098 150L531.798 149.1L529.898 146.4H526.798L523.398 142.7L522.898 135.9L522.998 132.1L524.398 129.2L523.698 126.6L520.998 123.6L523.098 117.7L528.298 113.8L529.498 112.5L529.298 104.8L529.498 101.9L531.998 99L535.698 96.2L536.998 96L541.298 91.2L542.998 90.4L545.198 86.6L547.498 83.1L550.498 80.6L555.098 78.7L563.998 74.7L567.798 73L568.398 70.8L564.198 71.2L563.498 72.3H562.898L561.198 69.3L552.598 69.6L551.598 70.4H550.598L550.098 69.1L549.298 67.4L546.798 67.9L543.698 71L542.198 71.8H539.198L536.698 70.8V68.8L535.398 68.6L534.898 69.1L532.398 67.8L531.898 65L530.498 65.5L529.998 66.5L527.698 66L522.598 63.7L518.798 61.2H515.998L514.698 60.2L512.498 60.8L511.398 61.9L511.098 63.2H506.498V61.2L500.398 60.9L500.098 59.5H495.498L493.998 58L492.598 52.1L491.798 46.8L489.998 46L487.798 45.5L487.198 45.7L486.898 53.6H457.898L459.798 58.8Z" fill="#F4A899" stroke="white"><title>Minnesota</title></path>
<path id="missouri" class="state-shape" d="M583.7 321L584.2 315.3L588.2 312L590 311V308.2L590.7 306.7L589.6 305.2L587.3 305.5L585.3 303.1L583.7 298.8L584.6 296.3L582.7 293.2L581 288.8L576.6 288.1L570 282.7L567.9 278.7L568.7 275.5L570.8 269.7L571.4 266.8L569.6 265.8L562.9 265.2L561.8 263.4V259.4L556.7 256L549.8 248.5L547.6 241.5L547.1 237.4L547.8 235.1L545.3 232.1L544.1 229.8L536.7 230.6L527.1 231.2L480 232.4L481.3 234.9L481.2 237L483.4 240.5L486.3 244.3L489.3 247.2L491.8 247.4L493.2 248.5V251.3L491.5 252.8L491 255L493 258.1L495.3 261L497.8 263L499.1 274.2L498.3 312.8L498.8 318.3L521.7 318.1L544.2 317.4L575.5 316.1L577.6 319.7L576.8 322.7L573.8 325.1L573.3 326.8L578.3 327.3L582.3 326.2L583.7 321Z" fill="#F4A899" stroke="white"><title>Missouri</title></path>
<path id="mississippi" class="state-shape" d="M594.501 450L597.001 445.9L598.701 446.7L605.301 444.9L607.301 445.2L608.701 446H613.701L614.101 444.5L612.501 430.2L609.801 411.9L610.801 368.4L610.601 352.3L610.801 346.2L606.201 346.5L587.301 348L574.801 348.4L574.601 351.5L571.901 352.8L569.401 357.7L569.901 359.2L570.001 361.5L567.201 362.6L563.801 367.5L564.601 369.7L561.701 372.1L560.701 377.6L560.101 379.4L561.601 381.8L560.201 383.2L561.601 385.9L561.901 389.9L560.701 392.3L560.501 393.2L560.901 398L562.801 402.3L562.701 403.9L564.901 405.8L564.201 408.8L563.301 409.1L563.901 410.9L555.601 425.4L554.801 433.3L555.301 434.7L578.601 434L586.501 433.3L588.301 433L588.901 434.4L587.901 441.2L591.101 444.4L593.201 450.6L594.501 450Z" fill="#F4A899" stroke="white"><title>Mississippi</title></path>
<path id="montana" class="state-shape" d="M360.002 62.6L354.902 117.7L353.602 132.4L296.602 126L249.402 119.2L248.102 130L246.302 128.4L245.902 126L244.602 124.2L241.402 125.6L240.702 128L238.502 128.3L234.802 126.8L230.802 126.9L228.502 127.6L225.402 126.2L222.502 126.4L220.502 128.2L219.602 127.6L218.902 124.3L219.602 121.2L217.002 118.1L213.802 115.7L211.402 103.6L211.302 98.5L209.802 97.7L209.202 98.7L204.902 101.8L203.702 101.7L201.502 99L201.302 96.3L208.102 79.8L207.502 77.2L204.102 76.1L203.702 75.2L201.102 71.8L196.702 61.8L193.602 60.3L191.902 56.2L193.202 51.7L190.102 44.4L194.302 23.9L225.802 30.5L243.502 33.8L274.602 38.9L302.902 42.8L331.102 46.2L360.802 49.2L360.002 62.6Z" fill="#F4A899" stroke="white"><title>Montana</title></path>
<path id="northcarolina" class="state-shape" d="M770.3 339.3L758.1 331.9L755.1 331.1L739.1 333.1L737.6 330.2L734.9 328.1L718.8 328.6L711.7 329.5L702.8 333.8L696.2 336.4L689.9 337.6L677 338.9L677.1 334.9L678.7 333.6L681.3 332.9L682 329.2L685.8 326.8L689.6 325.4L693.9 321.8L698.1 319.6L698.8 316.5L702.8 312.8L703.5 313.8L705.9 314L708.2 310.5L709.8 310.1L712.3 310.4L714 306.5L716.4 304.2L716.9 302.5L717 299.1L721.2 299.2L758.3 293.8L813.7 281.9L815.6 286.5L819.1 292.8L821.4 295.1L822 297.3L819.7 297.5L820.5 298.1L820.2 302.2L817.7 303.5L817.1 305.5L815.8 308.3L812.2 309.8L809.9 309.5L808.5 309.3L807 308L807.3 309.3V310.3H809.1L809.9 311.6L808.1 317.7H812.2L812.8 319.2L815 317L816.3 316.5L814.5 320L811.5 324.6H810.2L809.1 324.1L806.5 324.7L801.5 327L795.2 332.1L791.9 336.6L790.1 342.9L789.6 345.2L785.1 345.7L780.2 347.1L770.3 339.3ZM817.9 314L820.4 311.6L823.5 309.1L824.9 308.5L825.1 306.6L824.5 300.7L823.1 298.5L822.5 296.7L823.2 296.5L825.8 301.8L826.2 306L826 309.3L822.7 310.7L820 313L818.9 314.2L817.9 314Z" fill="#F4A899" stroke="white"><title>North Carolina</title></path>
<path id="northdakota" class="state-shape" d="M465.901 116.3L465.501 110.3L463.801 103.3L462.101 90.2L461.601 80.8L459.801 77.7L458.301 72.6V62.6L458.901 58.9L457.201 53.6L429.601 53L411.701 52.4L386.001 51.1L361.701 49L360.801 62.9L356.301 112L411.101 115.8L466.001 117.4V116.3H465.901Z" fill="#F4A899" stroke="white"><title>North Dakota</title></path>
<path id="nebraska" class="state-shape" d="M465.302 191.4L464.302 189.2L463.802 187.7L461.002 186.2L456.402 184.8L454.302 183.6L451.802 183.7L448.202 184.1L444.202 185.3L438.402 181.3L436.302 179.4L426.002 180L386.002 177.7L351.702 175.6L347.602 217.7L379.502 220.9L378.002 241L398.902 242L438.002 243.2L480.202 243.8H484.502L482.402 240.9L479.902 237.1L480.002 234.9L478.602 232.3L476.802 227.3L476.402 220.8L475.002 216.8L474.502 212L472.302 208.4L471.302 203.9L468.602 196.3L467.602 191.2L465.302 191.4Z" fill="#F4A899" stroke="white"><title>Nebraska</title></path>
<path id="newhampshire" class="state-shape" d="M861.9 130.6L863 127.5L860.4 126.3L859.9 123.3L855.9 122.2L855.6 119.3L844.3 83.2L843.6 83.3L843 84.8L842.4 84.3L841.4 83.3L840 85.1L839.8 87.3L840.3 95.4L842.1 98.1V102.2L838.3 106.8L836 107.7V108.4L837.1 110.2V118.5L836.3 127.4L836.1 131.9L837.1 133.2L836.9 137.7L836.4 139.1L837.4 140.2L842.3 139L855.6 135.6L857.2 132.8L861.1 131L861.9 130.6Z" fill="#F4A899" stroke="white"><title>New Hampshire</title></path>
<path id="newjersey" class="state-shape" d="M806.001 214.5L806.101 213.1L808.701 211.8L810.301 209.1L811.901 206.8L815.101 203.7V202.5L809.201 198.5L808.201 195.9L805.601 195.6L805.501 194.7L804.801 192.6L806.901 191.5L807.101 188.7L805.801 187.4L806.001 186.2L807.801 183.2V180.2L810.201 177.2L815.601 179.6L821.801 181.4L824.201 182.6L824.301 184.3L823.801 186.9L824.201 191.2L822.201 193L821.101 194L821.601 194.5L824.201 194.2L825.301 193.4L826.801 196.7L827.001 205.8L827.601 206.9L826.501 212.2L823.501 218.5L820.901 222.4L820.101 227L818.101 229.3H817.301L817.001 226.7L817.801 225.7L817.601 224.3L814.001 224L809.401 221.8L806.301 219L805.301 217.1L806.001 214.5Z" fill="#F4A899" stroke="white"><title>New Jersey</title></path>
<path id="newmexico" class="state-shape" d="M272.301 408.4L256.201 405.9L255.001 415.2L239.801 413.3L245.601 375L252.301 323.7L256.501 293.9L289.301 297.7L325.401 301.9L356.301 304.6L356.001 315L354.601 314.9L347.501 409.1L320.101 407.4L283.401 403.8L284.101 409.9L272.301 408.4Z" fill="#F4A899" stroke="white"><title>New Mexico</title></path>
<path id="nevada" class="state-shape" d="M130.501 161.8L167.801 170L192.901 175L182.701 226.2L177.501 254.9L174.301 269.8L172.301 280.5L169.801 296.3L168.201 299.3L166.701 299.2L165.501 296.7L162.801 296.2L161.501 295.1L159.801 295.2L158.901 296L157.201 297.3L156.901 304.3L156.601 305.7L156.101 317.7L155.001 319.4L138.901 294.8L98.3008 235L86.3008 216.7L94.5008 185.3L102.201 155.1L130.501 161.8Z" fill="#F4A899" stroke="white"><title>Nevada</title></path>
<path id="newyork" class="state-shape" d="M824.999 187.2L825.499 184.6L825.299 182.3L822.399 180.9L816.099 179L810.299 176.5L809.699 176.1L807.099 175.8L805.199 174.4L803.199 168.7L799.999 168.2L797.699 165.9L760.699 173.7L730.199 179.5L729.699 173.2L731.199 172L732.499 170.9L733.499 169.4L735.199 168.3L736.999 166.6L737.499 165.1L739.499 162.5L740.599 161.5L740.399 160.5L739.099 157.5L737.399 157.3L735.599 151.4L738.399 149.7L742.599 148.3L746.499 147L749.599 146.5L755.699 146.3L757.499 147.6L758.999 147.8L760.999 146.5L763.499 145.4L768.499 144.9L770.499 143.2L772.199 140.1L773.699 138.3H775.699L777.499 137.2L777.699 135L776.299 133L775.999 131.6L777.099 129.6V128.2H775.399L773.699 127.4L772.899 126.3L772.699 123.8L778.299 118.5L778.899 117.7L780.299 114.9L783.099 110.6L785.699 107L787.699 104.7L789.999 103L792.999 101.8L798.299 100.5L801.399 100.7L805.699 99.3L812.799 97.2L813.499 101.9L815.799 108.2L816.599 113L815.599 117.1L818.099 121.4L818.899 123.3L817.999 126.4L821.599 128L824.199 137.8V143.4L823.599 153.9L824.399 159.1L825.099 162.6L826.499 169.6V177.4L825.399 179.6L827.399 182.2L827.899 183.1L826.099 184.8L826.399 186.1L827.699 185.8L829.099 184.5L831.299 182L832.399 181.4L833.899 182L836.099 182.2L843.699 178.4L846.499 175.8L847.799 174.4L851.799 175.9L848.499 179.4L844.699 182.2L837.899 187.3L835.399 188.3L829.799 190.1L825.899 191.2L824.899 190.8L824.999 187.2Z" fill="#F4A899" stroke="white"><title>New York</title></path>
<path id="ohio" class="state-shape" d="M651.801 198L653.401 212.9L658.001 252.5L661.801 252.3L664.001 251.5L667.501 253.2L669.101 257.3L674.301 257.4L676.001 259.3H677.601L679.901 258L682.901 258.5L684.301 259.8L686.001 257.9L688.201 256.5L690.501 256.1L691.101 258.7L692.601 259.7L695.101 261.6L695.901 261.8L697.801 261.7L699.001 261.1V259.1L700.601 257.7L700.701 253.1L701.801 249.1L703.601 247.8L704.601 248.5L705.601 249.6L706.301 249.8L706.701 249.4L705.801 246.8V244.7L706.901 243.4L709.301 239.9L710.601 238.5L712.701 239L714.701 237.6L717.601 234.4L719.701 230.8L719.901 225.6L720.401 220.8V216.4L719.201 213.3L720.401 211.6L721.701 210.4L721.101 207.7L717.001 183L711.001 186.6L707.201 188.8L703.901 192.4L700.001 196.2L696.901 197L694.101 197.5L688.801 200L686.801 200.2L683.501 197.2L678.501 197.8L676.001 196.4L673.901 195.1L651.801 198Z" fill="#F4A899" stroke="white"><title>Ohio</title></path>
<path id="oklahoma" class="state-shape" d="M408.901 317.3L407.201 340.7L406.301 358.1L406.501 359.6L410.401 363.1L412.001 364H412.901L413.801 362L415.201 363.8L416.701 363.9L417.001 363.7L417.201 362.6L419.901 364L419.501 367.4L423.201 367.9L425.601 368.9L429.701 369.5L431.901 371L434.301 369.4L437.701 370.1L439.801 373.1L441.001 373.2V375.4L443.001 376.1L445.401 374.1L447.101 374.7L449.701 374.8L450.401 377L454.601 378.7L456.201 378.4L458.001 374.4H459.301L460.401 376.4L464.401 377.2L467.701 378.5L470.601 379.3L472.101 378.6L472.801 376H477.101L478.901 376.9L481.501 375.1H482.901L483.501 376.5H487.001L488.901 374.8L491.101 375.4L492.701 377.5L495.601 379.1L498.901 380L500.701 381.2L500.401 344.9L499.001 334.4L498.901 326.1L497.501 319.7L496.901 313.1L497.001 309L484.901 309.3L440.301 308.8L397.201 306.8L357.201 305.1L356.801 315.4L408.901 317.3Z" fill="#F4A899" stroke="white"><title>Oklahoma</title></path>
<path id="oregon" class="state-shape" d="M76.8 147.6L104 154.5L130.5 160.8L146.9 164.4L155.4 130.6L156.6 126.4L158.9 121.1L158.2 119.8L155.8 119.9L154.5 118.2L155.1 116.8L155.5 113.6L160 108.1L161.8 107.2L162.7 106.4L163.4 103.8L164.2 102.7L168 97.2L171.6 93.3L171.8 90.2L168.5 87.8L167.3 83.4L154.7 79.7L139.9 76.4L125.6 76.8L124.5 75.5L119.6 77.3L115.3 76.8L113 75.3L111.7 75.8L107.2 75.5L105.3 74.1L100.6 72.4L99.5 72.3L95.2 71.1L93.5 72.6L87.5 72.4L82.4 68.7L82.6 59.8L80.6 56.4L76.6 55.8L75.9 53.4L73.6 52.9L68 54.9L66 61.1L62.9 70.7L59.8 77L55 90.6L48.7 103.7L40.9 115.8L39.1 118.6L38.3 126.9L37 132.7L39.6 136.1L76.8 147.6Z" fill="#F4A899" stroke="white"><title>Oregon</title></path>
<path id="pennsylvania" class="state-shape" d="M722.001 179.7L723.301 179.2L728.801 173.9L729.501 180.6L761.801 174.3L797.401 166.8L799.601 169L802.601 169.4L804.501 174.8L806.801 176.6L809.501 177L809.601 177.1L807.101 180.2V183.2L805.301 186.2L805.001 188L806.301 189.3L806.101 191.1L803.801 192.2L804.801 195.5L805.001 196.6L807.701 196.9L808.601 199.3L814.301 203.1V203.5L811.301 206.4L809.901 208.5L808.301 211.2L805.701 212.4L804.401 212.7L802.401 214L800.901 215.4L779.301 219.5L742.001 227L731.101 228.3L727.301 229L722.401 207.4L718.301 182.4L722.001 179.7Z" fill="#F4A899" stroke="white"><title>Pennsylvania</title></path>
<path id="rhodeisland" class="state-shape" d="M854.101 163.8L853.301 159.6L851.801 153.8L857.301 152.4L858.701 153.7L862.001 157.8L864.701 162L862.001 163.4L860.701 163.2L859.601 164.9L857.301 166.7L854.601 167.8L854.101 163.8Z" fill="#F4A899" stroke="white"><title>Rhode Island</title></path>
<path id="southcarolina" class="state-shape" d="M743.6 393.2L741.6 392.2L739.8 386.8L737.4 384.6L735 384.1L733.6 379.7L730.7 373.4L726.7 371.7L724.9 370L723.7 367.5L721.4 365.6L719.2 364.3L717.1 361.5L714 359.2L709.8 357.6L709.4 356.2L707.2 353.5L706.7 352.1L703 346.9L699.7 347L695.9 344.6L694.7 343.4L694.5 342L695.1 340.5L697.7 339.2L696.9 337.3L703.1 334.7L712 330.4L718.8 329.5L734.6 329L736.8 330.8L738.5 334.2L742.9 333.4L755 332L757.6 332.8L769.7 339.9L779.4 347.9L774.3 353.1L771.8 359L771.3 365.1L769.8 365.9L768.7 368.5L766.4 369.1L764.4 372.6L761.8 375.2L759.6 378.5L758.1 379.3L754.6 382.6L751.8 382.8L752.8 385.9L748 391L745.8 392.5L743.6 393.2Z" fill="#F4A899" stroke="white"><title>South Carolina</title></path>
<path id="southdakota" class="state-shape" d="M465.9 169L465 172.1L465.4 175L467.9 176.9L466.7 182.1L465 186.1L466.4 189.3L467.1 190.4L465.8 190.5L465.1 189L464.5 187.1L461.3 185.4L456.7 184L454.3 182.7L451.5 182.8L447.7 183.2L444 184.4L438.9 180.7L436.3 178.4L425.8 179.2L385.8 176.9L351.5 174.8L352.9 150.9L355.6 118.1L356 113.3L410.9 117.1L465.8 118.7V121.3L464.5 122.7L462.6 124.1L462.5 126.2L463.6 128.3L467.6 131.6L468.1 134.2V168.8L465.9 169Z" fill="#F4A899" stroke="white"><title>South Dakota</title></path>
<path id="tennessee" class="state-shape" d="M658.601 341.1L646.001 342.3L623.501 344.4L587.201 347L575.801 347.4L576.701 346.8L577.601 342.5L576.401 339L580.201 336.8L580.601 334.4L581.801 330.3L584.701 321.1L585.201 315.7L585.501 315.5L597.401 315.3L610.501 314.5L610.601 310.7L614.001 310.6L643.301 307.4L695.401 302.4L705.301 301L712.601 300.8L714.901 299L716.201 299.3L716.101 302.5L715.701 304L713.401 306.1L711.901 309.6L710.001 309.2L707.701 310.1L705.601 313.3L704.301 313.1L703.501 311.9L702.401 312.3L698.301 316.2L697.501 319.2L693.501 321.3L689.401 324.8L685.701 326.2L681.501 328.9L680.901 332.4L678.501 332.9L676.601 334.5L676.401 339.1L658.601 341.1Z" fill="#F4A899" stroke="white"><title>Tennessee</title></path>
<path id="texas" class="state-shape" d="M284.5 404.8L320.2 408.3L348.5 410.1L355.6 315.9L408.1 318.2L406.5 340.7L405.5 358.1L405.7 360L409.9 364L411.8 365.1H413.5L414 363.9L414.7 364.8L417 365L418.1 364.4V364.2L419.1 364.7L418.7 368.3L423 369L425.3 369.9L429.3 370.6L431.8 372.3L434.5 370.5L437.1 371.1L439.2 374.1L440 374.2V376.2L443.2 377.3L445.6 375.3L447 375.8L449 375.9L449.6 377.9L454.6 379.8L456.8 379.3L458.6 375.4H458.7L459.8 377.2L464.2 378.1L467.5 379.4L470.6 380.4L472.9 379.2L473.6 377H477.1L479.1 378L482 376.1H482.4L482.9 377.5H487.4L489.2 375.8L490.5 376.2L492.1 378.2L495.3 380L498.6 381L501 382.4L503.6 384.3L506.6 383.1L508.6 383.9L509.3 403.2L510 412.4L510.6 416.4L513.1 420.6L514 424.9L518 430.6L518.3 433.6L518.9 434.4L518.2 441.8L515.4 446.4L516.7 448.9L516.2 451.2L515.4 458.1L514.1 461L514.4 465.1L509 466.6L499.5 470.9L498.5 472.7L496 474.5L494 475.9L492.7 476.7L487.2 481.8L484.6 483.8L479.5 486.9L474 489.2L467.9 492.5L466.2 493.9L460.6 497.4L457.3 498L453.5 503.3L449.6 503.6L448.6 505.4L450.8 507.2L449.4 512.5L448.1 516.8L447 520.6L446.2 524.9L447 527.2L448.7 534L449.7 539.9L451.4 542.5L450.4 543.9L447.4 545.7L441.9 541.9L436.6 540.8L435.3 541.3L432.2 540.7L428.2 537.7L423.2 536.6L415.9 533.3L413.9 529.5L412.6 523.2L409.5 521.4L408.9 519.2L409.5 518.6L409.8 515.3L408.5 514.7L407.9 513.7L409.2 509.5L407.7 507.3L404.6 506L401.3 501.8L397.8 495.4L393.7 492.9L393.9 491.1L388.8 479.2L388 475.2L386.3 473.4L386.1 472L380.3 466.9L377.8 463.9V462.8L375.3 460.8L368.7 459.7L361.6 459.1L358.6 456.9L354.3 458.6L350.8 460L348.6 463.1L347.6 466.7L343.4 472.6L341.1 474.9L338.6 473.9L336.9 472.8L335.1 472.2L331.3 470V469.4L329.6 467.6L324.6 465.6L317.5 458.1L315.3 453.6V445.8L312.2 439.5L311.7 436.9L310.2 435.9L309.1 433.9L304.3 431.9L303 430.4L296.2 422.8L294.9 419.7L290.4 417.5L289 413.3L286.5 410.5L285 410L284.5 404.8ZM452.6 541.4L452 534.6L449.4 527.7L448.8 521L450.2 513.1L453.4 506.4L456.8 501.2L459.9 497.7L460.5 497.9L455.9 504.3L451.7 510.6L449.8 517L449.5 522L450.4 527.9L452.9 534.8L453.4 539.8L453.6 541.2L452.6 541.4Z" fill="#F4A899" stroke="white"><title>Texas</title></path>
<path id="utah" class="state-shape" d="M231.998 289.3L255.698 292.8L257.498 279.6L264.198 230.9L266.398 209.7L235.398 206.3L237.498 193.7L239.198 183.5L205.698 177.6L193.598 175.2L183.398 226.2L178.198 255.1L174.998 269.9L173.398 278.8L231.998 289.3Z" fill="#F4A899" stroke="white"><title>Utah</title></path>
<path id="virginia" class="state-shape" d="M816.601 250.1L816.401 252.8L813.601 256.5L813.201 260.9L813.701 264.2L812.001 269L809.901 270.8L808.501 266.4L808.901 261.2L810.401 257.2L811.101 254L811.001 252.4L816.601 250.1ZM758.501 293.1L721.301 298.5L716.701 298.4L714.601 298.1L712.201 299.9L705.201 300L695.301 301.5L688.801 302.1L692.801 299.6L696.801 297.4V295.4L702.301 288.4L706.301 284.8L708.401 282.4L711.901 286.5L715.601 287.4L718.201 286.4L720.101 285L722.401 286.2L726.801 284.9L728.401 280.7L730.701 281.4L733.801 279.2L735.301 279.6L738.001 276.5L738.201 273.9L737.401 272.7L742.001 262.6L743.701 257.6L744.201 253.1L744.901 252.9L746.001 254.5L747.401 255.7L751.201 255.5L752.801 247.7L755.701 247.1L756.501 244.6L759.201 242.5L760.301 240.5L762.001 236.4L762.101 232L765.601 233.3L772.001 236.3L772.301 231.3L775.601 232.5L775.001 235.3L783.301 238.3L784.701 240L783.901 243.2L782.601 244.5L782.101 246.1L782.601 248.4L784.501 249.7L788.301 251L791.101 252L795.801 252.9L797.901 254.9L801.001 255.3L801.901 256.5L801.501 261L802.901 262.1L802.401 263.9L803.601 264.7L803.401 266L800.801 265.9L800.901 267.4L803.101 268.8L803.201 270.2L804.901 271.9L805.401 274.3L802.901 275.7L804.401 277.1L810.001 275.5L813.601 281.5L758.501 293.1Z" fill="#F4A899" stroke="white"><title>Virginia</title></path>
<path id="vermount" class="state-shape" d="M814.7 101.7L817 108L817.8 113.1L816.8 116.9L819.2 121.1L820.1 123.3L819.4 125.8L822.6 127.2L825.4 137.6V142.7L836.5 140.7L835.5 139.6L836.1 137.8L836.3 133.7L835.3 132.4L835.5 127.9L836.3 118.9V110.7L835.2 109V107.5L837.9 106.4L841.3 102.2V98.7L839.5 96.1L839.2 90.5L814 97L814.7 101.7Z" fill="#F4A899" stroke="white"><title>Vermont</title></path>
<path id="washington" class="state-shape" d="M83.5984 59.7L81.3984 55.6L77.3984 54.9L76.9984 52.5L74.5984 51.9L71.7984 51.4L70.0984 52.4L67.8984 49.6L68.1984 46.8L70.7984 46.5L72.2984 42.6L69.7984 41.5L69.9984 37.9L74.1984 37.3L71.5984 34.7L70.1984 28L70.7984 25.2V17.6L68.9984 14.5L71.1984 5.39999L73.1984 5.89999L75.4984 8.69999L78.0984 11.2L81.1984 13L85.4984 15L88.4984 15.6L91.2984 17L94.5984 18L96.7984 17.8V15.5L98.0984 14.4L100.098 13.1L100.398 14.2L100.698 15.9L98.4984 16.4L98.1984 18.4L99.9984 20L101.098 22.3L101.698 24.1L103.098 23.9L103.298 22.6L102.298 21.3L101.798 18.2L102.598 16.5L101.998 15.1V12.6L103.698 9.09999L102.598 6.59999L100.298 1.99999L100.598 1.19999L101.898 0.399994L106.098 1.79999L115.498 4.39999L123.798 6.19999L143.098 11.7L165.298 17.2L179.798 20.6L175.198 37.5L170.898 57.6L167.598 73.3L167.198 82.2L154.798 78.6L139.998 75.4L125.998 75.7L124.898 74.2L119.398 76.2L115.598 75.8L113.098 74.1L111.498 74.7L107.498 74.5L105.798 73.2L100.798 71.4L99.6984 71.2L95.1984 70L93.2984 71.6L87.8984 71.4L83.4984 68.2L83.5984 59.7ZM92.8984 6.19999L94.7984 5.99999L95.2984 7.29999L96.6984 5.79999H98.8984L99.6984 7.19999L98.2984 8.79999L98.8984 9.59999L98.1984 11.5L96.7984 12C96.7984 12 95.8984 12.1 95.8984 11.8C95.8984 11.5 97.2984 9.29999 97.2984 9.29999L95.6984 8.69999L95.3984 10.1L94.6984 10.7L93.2984 8.49999L92.8984 6.19999Z" fill="#F4A899" stroke="white"><title>Washington</title></path>
<path id="wisconsin" class="state-shape" d="M533.798 100.3L536.598 100.8L539.398 100.2L546.498 97.1L549.298 95.3L551.298 94.5L553.098 95.9L551.998 97L550.198 100L549.598 101.8L550.598 102.4L552.298 101.4L553.398 101.2L555.998 102L556.598 103.1L557.698 103.3L558.298 102.2L562.198 107.3L570.098 108.5L577.998 110.6L580.498 111.7L592.398 114.2L593.898 116.4L597.398 117.6L598.998 127.4L600.498 128.7L601.898 129.6L600.798 131.8L599.098 133.3L597.098 137.8L595.798 140.1L595.998 141.8L597.398 142.1L598.498 140.3L599.898 139.5L600.698 137.3L602.498 135.6L605.098 131.7L609.098 125.6L609.898 125.1L610.198 126.1L609.998 128.3L607.198 134.9L604.598 140.4L604.098 143.5L603.498 146L604.298 147.3L604.098 149.9L602.298 152.2L601.798 153.9L602.398 157.4L602.998 160.7L601.598 163.2L600.798 166L599.798 169L600.898 171.3L601.498 177.2L602.998 181.5L602.798 184.4L587.498 186.1L570.598 187.1H558.398L557.698 185.7L554.898 185.3L552.398 184L550.198 180.4L549.898 176.9L551.798 174.1L551.298 172.8L549.298 170.7L548.498 167.5L547.898 160.9L545.898 158.5L539.098 154.2L535.398 149L532.098 148L529.998 145.3H526.898L524.098 142.1L523.598 135.8L523.698 132.1L525.098 129.1L524.298 126L521.898 123.3L523.598 118.1L528.598 114.4L530.098 112.6L529.898 104.8L530.098 102.1L532.398 99.4L533.798 100.3Z" fill="#F4A899" stroke="white"><title>Wisconsin</title></path>
<path id="westvirginia" class="state-shape" d="M743.498 239.6L749.098 233.8L751.598 233L753.098 231.6L754.498 229.5L755.598 229.8L758.598 229.6L762.998 226.1L764.398 225.6L765.698 226.6L768.198 227.8L771.098 230.7L770.698 234.8L765.498 232.3L760.898 230.6L760.798 236.3L758.298 241.8L755.498 244.1L754.698 246.3L751.798 246.8L750.198 254.6L747.498 254.8L746.398 253.8L745.198 251.9L743.098 252.4L742.598 257.3L740.898 262.2L736.098 272.8L736.998 274.2V276L734.898 278.4L733.398 278L730.398 280.2L727.698 279.4L725.998 284.1L722.298 285.1L719.898 283.8L717.498 285.6L715.298 286.3L712.198 285.5L708.498 281.2L705.098 279.1L702.698 276.7L699.898 273.1L699.398 270.9L696.698 269.3L696.098 268L695.898 262.6L696.198 262.7L698.498 262.5L700.198 261.5V259.4L701.798 258L701.898 253L702.798 249.5L703.898 248.8L704.298 249.1L705.298 250.2L706.898 250.7L707.998 249.4L706.998 246.4V245L709.998 240.6L711.198 239.3L713.098 239.8L715.598 238.1L718.598 234.8L720.898 230.8L721.098 225.4L721.598 220.8V216.1L720.498 213.2L721.398 211.9L722.198 211.2L726.298 229.8L730.398 229L741.198 227.7L743.498 239.6Z" fill="#F4A899" stroke="white"><title>West Virginia</title></path>
<path id="wayoming" class="state-shape" d="M352.201 150.5L350.801 175L346.601 217.4L344.001 217.1L263.701 208.3L236.801 205.4L238.701 193.8L245.401 154.3L249.101 131L250.401 120.2L296.901 127L353.901 133.3L352.201 150.5Z" fill="#F4A899" stroke="white"><title>Wyoming</title></path>

<path id="alaska" class="state-shape" d="M70.1987 536.1C69.8987 536.1 69.4987 536 69.2987 535.7C69.1987 535.6 69.0987 535.4 68.9987 535.2C68.8987 535 68.8987 534.9 68.8987 534.7C69.1987 531.1 72.7987 530.6 75.1987 530.3C75.8987 530.2 76.5987 530.1 77.2987 529.9C77.8987 529.5 78.5987 529.1 79.0987 528.6C80.9987 527.1 83.0987 525.5 84.9987 525.5C85.3987 525.5 85.7987 525.6 86.0987 525.7C86.4987 525.9 86.7987 526.1 86.9987 526.4L87.3987 526C87.6987 525.7 87.8987 525.4 88.1987 525.1C89.1987 524.1 90.3987 523.4 91.6987 522.9C92.4987 522.6 93.2987 522.4 94.0987 522.3C94.6987 522.2 95.1987 522.1 95.6987 521.9C95.7987 521.9 95.8987 521.8 95.9987 521.7C96.0987 521.6 96.0987 521.4 96.0987 521.3C96.1987 520.9 96.2987 520.6 96.3987 520.3C96.9987 518.9 97.8987 517.6 98.8987 516.4C99.1987 516.1 99.3987 515.8 99.6987 515.6C99.9987 515.3 100.499 514.9 100.499 514.7C100.499 514.3 100.399 514 100.199 513.6C99.8987 512.8 99.6987 512 99.7987 511.2C99.8987 510.5 99.9987 509.8 100.299 509.1C99.7987 509.1 99.2987 509 98.8987 509C98.6987 509.6 98.2987 510.1 97.7987 510.5C97.2987 510.9 96.6987 511 96.0987 511C95.2987 511 94.4987 510.7 93.7987 510.3C93.2987 510 92.6987 509.6 92.2987 509.2C92.0987 509 91.8987 508.8 91.5987 508.7C91.1987 508.8 90.7987 508.9 90.4987 509.2C90.3987 509.3 90.2987 509.4 90.0987 509.4C89.3987 510 88.5987 510.3 87.6987 510.4C87.1987 510.4 86.7987 510.3 86.3987 510C85.6987 509.5 84.9987 508.5 86.0987 506.9C86.0987 506.8 86.1987 506.8 86.1987 506.7C86.1987 506.4 86.0987 506.1 85.9987 505.9C85.6987 505.1 85.3987 504 85.9987 503.1C86.2987 502.8 86.5987 502.5 86.9987 502.3C86.8987 501.6 86.6987 500.9 86.4987 500.1L86.3987 499.7C85.9987 499.9 85.5987 500.1 85.1987 500.4C84.3987 501 83.4987 501.3 82.4987 501.4C81.8987 501.4 81.2987 501.2 80.7987 500.9C80.2987 500.6 79.7987 500.2 79.4987 499.6L79.0987 499.2C76.9987 496.7 75.3987 494.5 76.5987 492.9C76.7987 492.6 77.0987 492.3 77.3987 492.2C76.5987 491.8 75.9987 491.1 75.5987 490.3C74.5987 488.5 75.3987 486.8 75.9987 485.7C76.1987 485.4 76.2987 485 76.4987 484.7C76.5987 484.4 76.6987 484.1 76.7987 483.8C78.2987 479.8 79.9987 475.8 82.5987 475.2C82.8987 475.1 83.1987 475.1 83.3987 475.1C83.8987 475.1 84.3987 475.2 84.8987 475.3C85.1987 475.4 85.4987 475.4 85.6987 475.4C85.8987 475.4 86.1987 475.3 86.3987 475.2C86.5987 475.1 86.6987 474.9 86.7987 474.8C87.1987 474.3 87.7987 473.9 88.4987 473.7C88.6987 473.7 88.7987 473.6 88.9987 473.6C89.4987 473.6 90.0987 473.8 90.4987 474.1L90.6987 474.2C91.5987 473.7 92.2987 473 92.6987 472C92.7987 471.5 92.7987 471 92.6987 470.5C92.4987 469.6 92.4987 468.7 92.6987 467.9C92.7987 467.7 92.8987 467.5 92.9987 467.4C91.6987 467.6 90.3987 468.1 89.3987 468.9C87.8987 469.9 86.0987 470.3 84.2987 470.3C82.6987 470.2 80.9987 470 79.4987 469.6C76.3987 468.9 75.9987 467.1 76.1987 464.5C76.1987 464.1 76.2987 463.8 76.2987 463.5C76.4987 462.2 76.4987 461.8 75.6987 460.7C75.5987 460.5 75.4987 460.4 75.2987 460.2C74.8987 459.7 74.5987 459 74.5987 458.4L75.6987 458.3L74.5987 458C74.5987 457.8 74.6987 457 74.6987 456.7C74.6987 456.5 74.6987 456.3 74.7987 456C75.5987 453.8 78.2987 453.5 80.2987 453.2C80.5987 453.2 80.9987 453.1 81.2987 453.1C81.6987 453 82.1987 452.9 82.5987 452.8C83.4987 452.5 84.4987 452.3 85.4987 452.3C85.9987 452.3 86.5987 452.4 87.0987 452.6C88.9987 453.5 88.8987 455.2 88.5987 456.5C88.8987 456.6 89.2987 456.8 89.5987 457C89.8987 457.2 90.1987 457.3 90.4987 457.4C90.5987 457.4 90.6987 457.4 90.7987 457.4C91.6987 457.3 92.4987 457 93.1987 456.6L93.8987 456.3L94.6987 455.9L94.5987 455.8C93.9987 455.4 93.3987 455 92.6987 454.7C91.7987 454.3 90.8987 453.8 90.0987 453.2C89.5987 452.8 88.9987 452.3 88.3987 451.9C87.2987 451.2 86.3987 450.4 85.4987 449.5C83.5987 447.3 82.2987 442.5 82.0987 441.6C81.7987 440.5 81.6987 439.4 82.2987 438.7C82.4987 438.5 82.6987 438.3 82.8987 438.2C83.0987 438.1 83.3987 438 83.6987 438C84.1987 438 84.7987 438.1 85.2987 438.3C85.5987 438.4 85.8987 438.5 86.1987 438.6C86.2987 438.6 86.3987 438.6 86.3987 438.6C87.4987 438.6 88.8987 437.8 88.9987 437.4L88.8987 437.2C88.5987 436.7 88.3987 436 88.4987 435.4C88.6987 434 89.9987 433 90.8987 432.3L91.2987 432C92.9987 430.6 94.7987 429.4 96.5987 428.2C97.5987 427.6 98.4987 426.9 99.4987 426.3C101.699 424.8 104.099 423.3 106.699 423.3C107.399 423.3 108.099 423.4 108.799 423.6C109.699 423.9 110.399 424.4 111.099 425.1C111.399 425.5 111.799 425.7 112.299 425.9C112.899 426 113.499 426.1 114.099 426.1C115.699 426 117.299 426.5 118.499 427.6L118.899 428C119.199 428.4 119.599 428.7 119.999 428.9C120.399 429.1 120.899 429.2 121.399 429.2H121.899C123.199 429.2 124.499 429 125.799 428.8C127.099 428.5 128.499 428.4 129.899 428.3C131.199 428.3 132.399 428.5 133.599 429C134.299 429.4 135.099 429.6 135.999 429.6C136.799 429.6 137.499 429.4 138.199 429C138.999 428.6 139.799 428.4 140.699 428.4C142.299 428.4 143.599 429.2 144.799 430.1C145.199 430.4 145.599 430.7 146.099 430.9C146.199 431 146.399 431.1 146.499 431.3C146.599 431.4 146.699 431.6 146.699 431.8L158.999 493C159.299 493 159.599 492.9 159.899 492.9C160.199 492.8 160.399 492.6 160.599 492.5C160.899 492.2 161.199 492 161.599 491.8C162.099 491.5 162.699 491.3 163.299 491.3C163.799 491.3 164.199 491.5 164.599 491.7C164.999 492 165.299 492.3 165.399 492.7C165.599 493.1 165.799 493.4 166.099 493.6C166.599 494 167.199 494.2 167.799 494.4C168.999 494.7 169.999 495.3 170.799 496.2C171.099 496.6 171.399 497 171.599 497.4C171.699 497.7 171.899 497.9 172.099 498.2C172.199 498.1 172.299 498.1 172.499 498C172.899 497.7 173.199 497.3 173.399 496.8C173.799 496 174.399 495.3 175.099 494.8C175.799 494.1 176.799 493.7 177.799 493.6C178.299 493.7 178.799 493.8 179.199 494.1C179.599 494.4 179.999 494.7 180.299 495.2C180.499 495.5 180.599 495.6 180.699 495.8L180.899 496L181.399 496.2C181.699 496.3 181.999 496.4 182.199 496.5C182.699 496.6 183.099 496.8 183.499 497C185.299 497.9 186.899 499 188.399 500.4C189.799 501.7 191.199 502.9 192.699 503.9C193.799 504.7 194.999 505.6 196.099 506.6C197.399 507.7 198.899 508.5 200.499 509C200.899 509.1 201.299 509.1 201.599 509.2C202.899 509.3 204.399 509.5 205.399 511.7C205.599 512.2 205.699 512.8 205.599 513.4C205.599 513.6 205.599 513.9 205.599 514.1L205.899 514.3C206.499 514.5 206.899 514.9 207.299 515.4C208.099 516.6 208.499 518.6 205.699 521.1C205.099 521.8 204.199 522.2 203.299 522.2C202.199 522.2 201.399 521.4 200.499 520.6L200.199 520.3C199.399 519.7 198.899 518.8 198.599 517.9C198.499 517.3 198.699 516.7 198.999 516.2L199.099 516.1C198.899 516.2 198.599 516.2 198.399 516.3C197.799 516.6 197.099 516.7 196.499 516.7C194.699 516.7 193.799 515.6 193.099 514.6C192.799 514.2 192.599 513.8 192.399 513.4C192.099 512.7 191.599 512.1 190.999 511.7C189.499 511 187.999 510.5 186.499 510.2C186.299 510.2 186.099 510.1 185.999 510C185.899 509.9 185.699 509.7 185.699 509.6C185.599 509.4 185.599 509.2 185.599 509C185.599 508.8 185.599 508.6 185.699 508.4C185.999 507.7 185.299 505.7 184.499 505C183.899 504.5 183.199 504.3 182.399 504.3C181.799 504.3 181.299 504.4 180.699 504.6C180.599 504.6 180.499 504.7 180.299 504.7C180.099 504.7 179.799 504.6 179.599 504.5C179.399 504.4 179.199 504.2 179.099 504C178.599 503.8 178.099 503.8 177.599 503.8C177.599 504 177.499 504.3 177.399 504.5C177.199 504.9 176.799 505.2 176.399 505.4C175.999 505.6 175.499 505.7 175.099 505.6C174.399 505.6 173.699 505.5 173.099 505.2C171.799 504.7 170.599 503.9 169.599 502.9C168.699 502.2 167.599 501.7 166.499 501.4C164.899 501.1 163.499 500.3 162.399 499.1L162.299 499.2C161.999 499.6 161.599 499.8 161.199 500C160.799 500.2 160.299 500.3 159.799 500.3H159.599C158.999 500.2 158.499 500.1 157.899 499.8C157.399 499.5 156.899 499.1 156.599 498.7C155.999 498.9 155.399 499 154.799 499.1C153.899 499.2 153.099 499.4 152.299 499.7C151.599 500 150.699 500.2 149.899 500.2C148.899 500.2 147.899 499.9 146.899 499.5C146.499 499.4 146.099 499.2 145.699 499.1C145.399 499 144.999 499 144.699 499C144.399 499 144.099 499 143.799 499C143.499 499 143.099 499 142.799 499C142.099 499.1 141.499 498.9 140.799 498.6C140.199 498.3 139.699 497.8 139.299 497.3C138.999 496.7 138.899 496.1 138.899 495.5C138.899 495 138.899 495 138.499 494.8C137.999 494.6 137.499 494.5 136.999 494.6C136.699 494.6 136.499 494.6 136.199 494.6C136.199 494.8 136.299 495.1 136.299 495.3C136.399 495.9 136.499 496.5 136.699 497.1C136.799 497.3 136.799 497.4 136.899 497.6C137.099 497.9 137.199 498.3 137.299 498.7C137.299 499.1 137.299 499.5 137.199 499.9C136.999 500.3 136.699 500.6 136.399 500.8C136.099 501 135.699 501.2 135.299 501.3C134.899 501.4 134.499 501.5 133.999 501.5C133.599 501.5 133.299 501.5 132.899 501.4C132.599 501.4 132.299 501.3 132.099 501.3C131.899 501.3 131.699 501.3 131.499 501.4C130.999 501.7 130.599 502.2 130.299 502.7C130.099 503.1 129.799 503.6 129.499 504C128.499 505.2 127.299 506.2 126.099 507.2C125.999 507.3 122.599 509.4 121.499 509.4C121.299 509.4 121.099 509.4 120.899 509.3C120.599 509.2 120.299 509 119.999 508.7C119.799 508.4 119.599 508.1 119.499 507.7C119.299 506.3 120.599 505 121.999 503.7L121.799 503.5C121.599 503.3 121.399 503.1 121.199 502.9C121.099 502.7 120.999 502.4 120.899 502.1C120.899 501.8 120.999 501.6 121.099 501.3C121.199 501.1 121.399 500.8 121.599 500.7L121.699 500.3C121.799 499.3 122.099 498.3 122.499 497.3C122.999 496.1 123.699 495 124.599 494.2C124.199 494.4 123.899 494.7 123.599 495C123.399 495.3 123.299 495.6 123.099 495.9C122.799 496.5 122.499 497.1 121.999 497.6C121.599 498 121.199 498.3 120.599 498.5C120.399 498.6 120.199 498.7 120.099 498.8C119.199 499.6 118.499 500.6 117.999 501.7C117.799 502 117.699 502.3 117.499 502.6C116.999 503.4 116.499 504.1 115.799 504.7C115.399 505.1 114.999 505.6 114.599 506.1C114.499 506.2 114.499 506.4 114.399 506.4C114.599 506.5 114.799 506.6 114.999 506.6C115.399 506.7 115.699 506.9 116.099 507.1C116.299 507.2 116.399 507.3 116.499 507.5C116.599 507.7 116.699 507.8 116.699 508C116.699 508.2 116.699 508.4 116.699 508.6C116.599 508.8 116.499 509 116.399 509.1C116.099 509.6 115.799 510.1 115.699 510.6C115.499 511.4 115.199 512.1 114.699 512.8C114.199 513.5 113.499 514 112.599 514.2C112.299 514.3 111.999 514.4 111.799 514.6C111.599 514.8 111.399 515 111.299 515.2C110.999 515.7 110.499 516.1 109.999 516.5C109.599 516.7 109.199 516.9 108.699 517L108.299 517.1C108.299 517.2 108.199 517.4 108.199 517.5C108.199 518.1 107.999 518.7 107.699 519.2C106.699 520.8 104.699 522 102.899 522.9C102.599 523.1 102.299 523.2 101.999 523.3C101.599 523.4 101.299 523.6 100.899 523.8C100.799 523.9 100.699 524 100.599 524.1C100.499 524.3 100.399 524.6 100.299 524.8C100.199 524.9 100.199 525.1 100.099 525.2C99.8987 525.9 99.4987 526.4 98.8987 526.8C98.3987 527.2 97.7987 527.5 97.1987 527.6C96.9987 527.7 96.7987 527.7 96.6987 527.8C95.5987 528.3 94.5987 529 93.6987 529.7C91.8987 531 90.0987 532.4 87.9987 532.6C87.7987 532.6 87.5987 532.6 87.3987 532.6C86.7987 532.6 86.1987 532.5 85.6987 532.3C85.4987 532.2 85.2987 532.2 84.9987 532.1C84.6987 532.1 84.3987 532.2 84.1987 532.3C83.9987 532.4 83.7987 532.5 83.5987 532.7C82.9987 533.1 82.2987 533.4 81.4987 533.5H81.1987C80.4987 533.5 79.7987 533.2 79.2987 532.8C79.1987 532.7 79.0987 532.7 78.9987 532.6C78.7987 532.6 78.6987 532.6 78.4987 532.6C77.0987 532.8 75.6987 533.2 74.3987 533.9C73.3987 535.3 71.7987 535.8 70.1987 536.1ZM67.8987 475.2C66.6987 475.1 65.5987 474.6 64.6987 473.8C64.3987 473.5 63.9987 473.2 63.5987 473C63.2987 472.9 62.8987 472.8 62.5987 472.8C61.8987 472.8 61.1987 472.6 60.4987 472.3C59.9987 472.1 59.5987 471.7 59.2987 471.2C58.9987 470.7 58.9987 470.1 59.0987 469.6C59.1987 469.1 59.5987 468.7 59.9987 468.4C60.3987 468.1 60.8987 468 61.3987 468C61.6987 468 61.9987 468 62.1987 468.1H62.2987C62.7987 467.7 63.3987 467.4 63.9987 467.4C65.8987 467.4 67.4987 469.4 69.1987 471.7C69.4987 472.1 69.7987 472.5 69.8987 472.6C70.0987 472.7 70.1987 472.9 70.2987 473.1C70.3987 473.3 70.3987 473.5 70.3987 473.7C70.3987 473.9 70.2987 474.1 70.1987 474.3C70.0987 474.5 69.8987 474.6 69.6987 474.7C69.1987 475 68.4987 475.1 67.8987 475.2ZM72.1987 499.9C71.9987 499.9 71.8987 499.9 71.6987 499.8C69.3987 498.8 68.1987 495.7 68.5987 493.5C68.5987 493.3 68.6987 493.2 68.7987 493C68.8987 492.9 68.9987 492.7 69.1987 492.6C69.3987 492.5 69.6987 492.4 69.8987 492.4C69.9987 492.4 70.0987 492.4 70.1987 492.4C70.3987 492.5 70.9987 492.6 71.5987 492.7L71.6987 492.6C72.1987 492.2 72.7987 491.9 73.3987 491.9C73.6987 491.9 73.8987 492 74.1987 492.1C74.3987 492.2 74.6987 492.4 74.7987 492.6C75.0987 493.1 75.1987 493.6 75.2987 494.1C75.3987 494.6 75.2987 495.2 75.1987 495.7C74.7987 497 74.1987 498.2 73.3987 499.3C73.2987 499.5 73.0987 499.6 72.8987 499.7C72.5987 499.9 72.3987 499.9 72.1987 499.9ZM113.499 522.7C112.899 522.7 112.399 522.5 111.899 522.2C111.399 521.9 110.999 521.4 110.799 520.9C110.499 520.4 110.399 519.8 110.399 519.2C110.299 518.6 110.399 518 110.599 517.5C110.799 517 111.099 516.5 111.499 516.1C111.899 515.8 112.399 515.5 112.899 515.2C113.299 515 113.699 514.8 113.999 514.5C114.299 514.2 114.699 513.9 114.999 513.5C115.299 513.1 115.499 513 115.799 512.7C116.099 512.4 116.299 512.2 116.499 511.9C117.199 511 118.199 509.7 119.899 509.7H120.099C120.399 509.7 120.599 509.8 120.799 510C120.999 510.2 121.099 510.4 121.199 510.7L121.599 512.4C121.599 512.5 121.599 512.6 121.599 512.7C121.599 513.2 121.499 513.8 121.299 514.3C121.199 514.6 121.099 515 121.099 515.4C121.099 515.6 121.099 515.9 121.099 516.1C121.299 517 121.099 517.9 120.699 518.6C120.199 519.5 118.099 521.6 116.499 521.6C116.199 521.6 115.899 521.5 115.599 521.4C115.299 521.8 114.999 522.1 114.499 522.3C114.399 522.5 113.999 522.7 113.499 522.7ZM186.099 517.8C185.999 517.8 185.899 517.8 185.899 517.8C184.899 517.5 184.099 516.9 183.499 516C183.199 515.6 182.799 515.2 182.299 514.9C181.999 514.8 181.799 514.7 181.499 514.7C180.899 514.6 180.299 514.3 179.799 513.9C179.299 513.5 178.999 512.9 178.799 512.3C178.699 511.8 178.599 511.2 178.699 510.7C178.699 510.5 178.699 510.3 178.699 510.1L177.999 510C177.299 509.9 176.699 509.6 176.099 509.2C175.599 508.8 175.199 508.3 175.099 507.7C174.899 507.1 174.999 506.4 175.199 505.9C175.499 505.2 175.999 504.6 176.599 504.2C177.199 503.8 177.999 503.6 178.699 503.6C178.899 503.6 179.099 503.6 179.299 503.7C179.399 503.7 179.399 503.7 179.499 503.8L181.999 504.6C184.099 505.1 185.199 507.7 185.799 509.7C185.999 510.3 186.099 511 186.199 511.6C186.299 512.1 186.399 512.6 186.499 513C186.599 513.3 186.699 513.5 186.799 513.8C187.299 514.9 187.399 516.1 187.099 517.2C186.999 517.4 186.899 517.7 186.699 517.8C186.599 517.7 186.399 517.8 186.099 517.8ZM198.799 523.8C196.499 523.8 193.299 522.9 191.499 521L191.199 520.7C189.399 518.8 187.499 516.6 188.199 514.7C188.399 514 189.099 513.2 190.899 512.9H191.099C191.399 512.9 191.699 513 191.899 513.2L193.399 514.5C193.899 514.7 194.299 514.9 194.899 515C195.999 515.2 196.999 515.7 197.799 516.5C199.199 517.9 200.599 520.5 200.199 522.7C200.199 523 199.999 523.3 199.799 523.5C199.499 523.7 199.199 523.8 198.799 523.8ZM54.1987 542.8C53.7987 542.8 53.3987 542.6 52.9987 542.3C52.6987 542 52.4987 541.6 52.4987 541.2C52.3987 539.8 56.2987 536.4 56.8987 536.3C57.0987 536.3 57.2987 536.2 57.4987 536.2C57.9987 536.2 58.4987 536.4 58.8987 536.6C59.2987 536.9 59.6987 537.2 59.8987 537.6C60.0987 537.8 60.3987 538.2 60.4987 538.2H60.5987C61.1987 537.6 61.5987 536.8 61.6987 535.9C61.6987 535.6 61.7987 535.3 62.0987 535.1C62.2987 534.9 62.5987 534.7 62.8987 534.7C63.3987 534.7 63.8987 534.7 64.4987 534.7H65.2987C65.3987 534.5 65.5987 534.4 65.6987 534.3C65.8987 534.2 66.0987 534.2 66.2987 534.2C66.4987 534.2 66.5987 534.2 66.7987 534.3C66.9987 534.4 67.0987 534.4 67.1987 534.6C67.2987 534.7 67.3987 534.8 67.4987 535C67.5987 535.2 67.5987 535.3 67.5987 535.5C67.5987 536.9 67.6987 538.6 65.5987 539.3C65.3987 539.4 65.2987 539.4 65.0987 539.4C64.9987 539.4 64.7987 539.4 64.6987 539.3C64.5987 539.5 64.4987 539.7 64.3987 539.8C64.0987 540.3 63.6987 540.7 63.1987 540.9C62.6987 541.2 62.1987 541.3 61.5987 541.3H61.3987C61.1987 541.3 61.0987 541.4 60.8987 541.4C60.4987 541.5 59.9987 541.6 59.5987 541.6C58.9987 541.6 58.4987 541.4 57.9987 541L57.4987 541.3C55.9987 542.3 54.9987 542.8 54.1987 542.8ZM70.6987 540.3C69.9987 540.2 69.2987 539.8 68.8987 539.3C68.7987 539.2 68.7987 539.1 68.6987 539.1H68.3987C68.0987 539.1 67.8987 539 67.5987 538.9C67.4987 538.8 67.2987 538.7 67.2987 538.5C67.1987 538.4 67.1987 538.2 67.0987 538C66.9987 537.3 67.0987 536.6 67.1987 535.9C67.1987 535.7 67.2987 535.6 67.3987 535.4C67.4987 535.3 67.5987 535.1 67.7987 535C68.0987 534.8 68.5987 534.7 68.9987 534.7C69.3987 534.7 69.7987 534.8 70.1987 535C70.3987 535.1 70.5987 535.2 70.6987 535.4L70.7987 535.5C71.2987 535.7 71.6987 536 71.9987 536.5C72.1987 537 72.3987 537.5 72.3987 538C72.3987 538.5 72.2987 539 72.0987 539.5C71.9987 539.7 71.7987 539.9 71.5987 540.1C71.3987 540.3 71.0987 540.3 70.8987 540.3H70.6987ZM112.999 528H112.699C111.999 527.9 110.199 527 109.899 525.8C109.799 525.5 109.799 525.1 109.799 524.8C109.899 524.5 109.999 524.1 110.199 523.9C110.499 523.6 110.899 523.4 111.299 523.2C111.699 523 112.099 523 112.599 523H113.099L113.299 522.9C113.699 522.7 114.099 522.5 114.499 522.5C114.899 522.5 115.199 522.6 115.599 522.8C115.899 523 116.199 523.2 116.399 523.5C116.599 523.7 116.599 524 116.599 524.3C116.599 524.6 116.499 524.9 116.299 525.1C115.999 525.4 115.799 525.7 115.699 526.1C115.499 526.6 115.199 527.1 114.699 527.4C114.099 527.8 113.599 528 112.999 528ZM78.0987 538.5C77.8987 538.5 77.5987 538.5 77.3987 538.4C77.1987 538.3 76.9987 538.2 76.7987 538C76.5987 537.7 76.4987 537.5 76.3987 537.1C76.2987 536.8 76.3987 536.5 76.3987 536.2C76.3987 536.1 76.3987 536 76.3987 535.8C76.3987 535.5 76.3987 535.3 76.4987 535C76.5987 534.8 76.7987 534.6 77.0987 534.5L78.1987 534C78.3987 533.9 78.5987 533.9 78.7987 533.9H78.9987C79.4987 533.9 79.8987 534.1 80.2987 534.4C80.5987 534.7 80.8987 535.1 80.8987 535.6C80.8987 536.2 80.7987 536.7 80.3987 537.2C80.0987 537.7 79.5987 538 79.0987 538.2C78.7987 538.4 78.4987 538.5 78.0987 538.5ZM48.1987 541.7C47.8987 541.7 47.5987 541.6 47.3987 541.4C47.1987 541.2 47.0987 541 46.9987 540.7C46.9987 540.4 46.9987 540.2 47.0987 539.9C47.1987 539.7 47.3987 539.5 47.6987 539.3L48.0987 539.1C48.2987 539 48.4987 539 48.6987 539C48.9987 539 49.1987 539.1 49.4987 539.3C49.6987 539.5 49.8987 539.7 49.9987 540C50.0987 540.3 50.0987 540.5 49.9987 540.8C49.8987 541.1 49.6987 541.3 49.4987 541.4L49.0987 541.6C48.6987 541.6 48.4987 541.7 48.1987 541.7ZM45.6987 543.9C45.0987 543.9 44.4987 543.7 43.8987 543.4C43.3987 543 42.9987 542.5 42.8987 541.9C42.7987 541.7 42.7987 541.6 42.7987 541.4C42.7987 541.2 42.8987 541.1 42.9987 540.9C43.0987 540.7 43.1987 540.6 43.3987 540.5C43.4987 540.4 43.6987 540.3 43.8987 540.3C44.1987 540.2 44.5987 540.2 44.8987 540.1C45.8987 540 46.7987 539.7 47.6987 539.3C47.8987 539.2 48.0987 539.2 48.2987 539.2H48.3987C48.7987 539.2 49.1987 539.3 49.4987 539.5C49.7987 539.7 49.9987 540.1 50.0987 540.4C50.3987 542 48.0987 543.3 48.0987 543.3C47.2987 543.7 46.4987 543.9 45.6987 543.9ZM38.5987 544.1C37.2987 544.1 35.7987 543.3 35.7987 542.1C35.7987 541.7 35.9987 541.3 36.1987 541.1C36.4987 540.8 36.7987 540.6 37.1987 540.6C37.3987 540.4 37.5987 540.3 37.7987 540.2C37.9987 540.1 38.1987 540.1 38.4987 540.1C38.7987 540.1 39.0987 540.2 39.3987 540.3C39.6987 540.5 39.8987 540.7 39.9987 541C40.1987 541.4 40.2987 541.8 40.2987 542.3C40.2987 542.7 40.1987 543.2 39.9987 543.6C39.8987 543.8 39.7987 543.9 39.5987 544C39.3987 544.1 39.2987 544.2 39.0987 544.2C38.9987 544.2 38.7987 544.2 38.5987 544.1ZM32.8987 544.9C31.5987 544.9 30.8987 543.8 30.3987 542.9C29.3987 542.8 28.4987 542.5 27.5987 542.1L27.0987 541.9C26.8987 541.8 26.6987 541.7 26.5987 541.5C26.4987 541.3 26.3987 541.1 26.3987 540.9C26.3987 540.7 26.3987 540.5 26.4987 540.3C26.5987 540.1 26.6987 539.9 26.8987 539.8C27.9987 538.9 29.3987 538.2 30.7987 537.9H30.9987C31.1987 537.9 31.3987 537.9 31.5987 538L31.9987 538.2C32.4987 538.3 32.8987 538.5 33.1987 538.8C33.5987 539.2 33.7987 539.6 33.8987 540.2C34.2987 540.3 34.6987 540.6 34.9987 540.9C35.2987 541.2 35.4987 541.6 35.5987 542C35.6987 542.5 35.6987 543 35.4987 543.5C35.2987 544 34.8987 544.3 34.4987 544.6C33.9987 544.7 33.4987 544.9 32.8987 544.9ZM20.7987 542.2C20.4987 542.2 20.2987 542.2 19.9987 542.1H19.7987C18.8987 542 18.0987 541.6 17.3987 541.1C17.1987 540.9 16.9987 540.8 16.6987 540.7C16.4987 540.6 16.2987 540.6 15.9987 540.6C15.6987 540.6 15.2987 540.6 14.8987 540.7C14.4987 540.8 14.0987 540.8 13.5987 540.8H13.0987C12.7987 540.8 12.5987 540.6 12.3987 540.5C12.1987 540.3 12.0987 540.1 11.9987 539.8C11.8987 539.4 11.8987 538.9 11.9987 538.5C12.0987 538.1 12.2987 537.7 12.5987 537.3C12.8987 537 13.1987 536.7 13.5987 536.6C13.9987 536.4 14.3987 536.4 14.7987 536.4C15.3987 536.4 15.8987 536.5 16.3987 536.8C16.8987 537.1 17.2987 537.3 17.6987 537.6C18.2987 538.1 19.0987 538.4 19.8987 538.4C20.0987 538.1 20.2987 537.9 20.5987 537.7C20.8987 537.5 21.1987 537.5 21.4987 537.5C21.8987 537.5 22.1987 537.6 22.4987 537.8C22.7987 538 23.0987 538.2 23.2987 538.5C23.4987 538.8 23.6987 539.2 23.6987 539.5C23.7987 539.9 23.6987 540.2 23.5987 540.6C23.3987 541.2 22.9987 541.6 22.5987 542C21.9987 542.1 21.3987 542.3 20.7987 542.2ZM2.8987 537.3C2.5987 537.3 2.2987 537.2 2.0987 537L1.7987 536.8C0.998697 536.1 -0.201303 535.2 -0.00130311 534C0.0986969 533.6 0.198697 533.3 0.498697 533C0.798697 532.7 1.0987 532.5 1.3987 532.4C1.4987 532.3 1.6987 532.3 1.8987 532.3C2.1987 532.3 2.3987 532.4 2.5987 532.5C2.7987 532.6 2.8987 532.8 2.9987 533C3.1987 533.1 3.2987 533.2 3.3987 533.4C3.4987 533.6 3.5987 533.7 3.5987 533.9C3.6987 534.4 3.7987 534.8 3.9987 535.2L4.0987 535.5C4.1987 535.8 4.1987 536 4.0987 536.3C3.9987 536.6 3.7987 536.8 3.5987 536.9C3.3987 537.2 3.1987 537.3 2.8987 537.3ZM48.2987 540.4C48.3987 540.3 48.4987 540.3 48.5987 540.2L48.2987 540.4ZM70.1987 536.1C69.8987 536.1 69.4987 536 69.2987 535.7C69.1987 535.6 69.0987 535.4 68.9987 535.2C68.8987 535 68.8987 534.9 68.8987 534.7C69.1987 531.1 72.7987 530.6 75.1987 530.3C75.8987 530.2 76.5987 530.1 77.2987 529.9C77.8987 529.5 78.5987 529.1 79.0987 528.6C80.9987 527.1 83.0987 525.5 84.9987 525.5C85.3987 525.5 85.7987 525.6 86.0987 525.7C86.4987 525.9 86.7987 526.1 86.9987 526.4L87.3987 526C87.6987 525.7 87.8987 525.4 88.1987 525.1C89.1987 524.1 90.3987 523.4 91.6987 522.9C92.4987 522.6 93.2987 522.4 94.0987 522.3C94.6987 522.2 95.1987 522.1 95.6987 521.9C95.7987 521.9 95.8987 521.8 95.9987 521.7C96.0987 521.6 96.0987 521.4 96.0987 521.3C96.1987 520.9 96.2987 520.6 96.3987 520.3C96.9987 518.9 97.8987 517.6 98.8987 516.4C99.1987 516.1 99.3987 515.8 99.6987 515.6C99.9987 515.3 100.499 514.9 100.499 514.7C100.499 514.3 100.399 514 100.199 513.6C99.8987 512.8 99.6987 512 99.7987 511.2C99.8987 510.5 99.9987 509.8 100.299 509.1C99.7987 509.1 99.2987 509 98.8987 509C98.6987 509.6 98.2987 510.1 97.7987 510.5C97.2987 510.9 96.6987 511 96.0987 511C95.2987 511 94.4987 510.7 93.7987 510.3C93.2987 510 92.6987 509.6 92.2987 509.2C92.0987 509 91.8987 508.8 91.5987 508.7C91.1987 508.8 90.7987 508.9 90.4987 509.2C90.3987 509.3 90.2987 509.4 90.0987 509.4C89.3987 510 88.5987 510.3 87.6987 510.4C87.1987 510.4 86.7987 510.3 86.3987 510C85.6987 509.5 84.9987 508.5 86.0987 506.9C86.0987 506.8 86.1987 506.8 86.1987 506.7C86.1987 506.4 86.0987 506.1 85.9987 505.9C85.6987 505.1 85.3987 504 85.9987 503.1C86.2987 502.8 86.5987 502.5 86.9987 502.3C86.8987 501.6 86.6987 500.9 86.4987 500.1L86.3987 499.7C85.9987 499.9 85.5987 500.1 85.1987 500.4C84.3987 501 83.4987 501.3 82.4987 501.4C81.8987 501.4 81.2987 501.2 80.7987 500.9C80.2987 500.6 79.7987 500.2 79.4987 499.6L79.0987 499.2C76.9987 496.7 75.3987 494.5 76.5987 492.9C76.7987 492.6 77.0987 492.3 77.3987 492.2C76.5987 491.8 75.9987 491.1 75.5987 490.3C74.5987 488.5 75.3987 486.8 75.9987 485.7C76.1987 485.4 76.2987 485 76.4987 484.7C76.5987 484.4 76.6987 484.1 76.7987 483.8C78.2987 479.8 79.9987 475.8 82.5987 475.2C82.8987 475.1 83.1987 475.1 83.3987 475.1C83.8987 475.1 84.3987 475.2 84.8987 475.3C85.1987 475.4 85.4987 475.4 85.6987 475.4C85.8987 475.4 86.1987 475.3 86.3987 475.2C86.5987 475.1 86.6987 474.9 86.7987 474.8C87.1987 474.3 87.7987 473.9 88.4987 473.7C88.6987 473.7 88.7987 473.6 88.9987 473.6C89.4987 473.6 90.0987 473.8 90.4987 474.1L90.6987 474.2C91.5987 473.7 92.2987 473 92.6987 472C92.7987 471.5 92.7987 471 92.6987 470.5C92.4987 469.6 92.4987 468.7 92.6987 467.9C92.7987 467.7 92.8987 467.5 92.9987 467.4C91.6987 467.6 90.3987 468.1 89.3987 468.9C87.8987 469.9 86.0987 470.3 84.2987 470.3C82.6987 470.2 80.9987 470 79.4987 469.6C76.3987 468.9 75.9987 467.1 76.1987 464.5C76.1987 464.1 76.2987 463.8 76.2987 463.5C76.4987 462.2 76.4987 461.8 75.6987 460.7C75.5987 460.5 75.4987 460.4 75.2987 460.2C74.8987 459.7 74.5987 459 74.5987 458.4L75.6987 458.3L74.5987 458C74.5987 457.8 74.6987 457 74.6987 456.7C74.6987 456.5 74.6987 456.3 74.7987 456C75.5987 453.8 78.2987 453.5 80.2987 453.2C80.5987 453.2 80.9987 453.1 81.2987 453.1C81.6987 453 82.1987 452.9 82.5987 452.8C83.4987 452.5 84.4987 452.3 85.4987 452.3C85.9987 452.3 86.5987 452.4 87.0987 452.6C88.9987 453.5 88.8987 455.2 88.5987 456.5C88.8987 456.6 89.2987 456.8 89.5987 457C89.8987 457.2 90.1987 457.3 90.4987 457.4C90.5987 457.4 90.6987 457.4 90.7987 457.4C91.6987 457.3 92.4987 457 93.1987 456.6L93.8987 456.3L94.6987 455.9L94.5987 455.8C93.9987 455.4 93.3987 455 92.6987 454.7C91.7987 454.3 90.8987 453.8 90.0987 453.2C89.5987 452.8 88.9987 452.3 88.3987 451.9C87.2987 451.2 86.3987 450.4 85.4987 449.5C83.5987 447.3 82.2987 442.5 82.0987 441.6C81.7987 440.5 81.6987 439.4 82.2987 438.7C82.4987 438.5 82.6987 438.3 82.8987 438.2C83.0987 438.1 83.3987 438 83.6987 438C84.1987 438 84.7987 438.1 85.2987 438.3C85.5987 438.4 85.8987 438.5 86.1987 438.6C86.2987 438.6 86.3987 438.6 86.3987 438.6C87.4987 438.6 88.8987 437.8 88.9987 437.4L88.8987 437.2C88.5987 436.7 88.3987 436 88.4987 435.4C88.6987 434 89.9987 433 90.8987 432.3L91.2987 432C92.9987 430.6 94.7987 429.4 96.5987 428.2C97.5987 427.6 98.4987 426.9 99.4987 426.3C101.699 424.8 104.099 423.3 106.699 423.3C107.399 423.3 108.099 423.4 108.799 423.6C109.699 423.9 110.399 424.4 111.099 425.1C111.399 425.5 111.799 425.7 112.299 425.9C112.899 426 113.499 426.1 114.099 426.1C115.699 426 117.299 426.5 118.499 427.6L118.899 428C119.199 428.4 119.599 428.7 119.999 428.9C120.399 429.1 120.899 429.2 121.399 429.2H121.899C123.199 429.2 124.499 429 125.799 428.8C127.099 428.5 128.499 428.4 129.899 428.3C131.199 428.3 132.399 428.5 133.599 429C134.299 429.4 135.099 429.6 135.999 429.6C136.799 429.6 137.499 429.4 138.199 429C138.999 428.6 139.799 428.4 140.699 428.4C142.299 428.4 143.599 429.2 144.799 430.1C145.199 430.4 145.599 430.7 146.099 430.9C146.199 431 146.399 431.1 146.499 431.3C146.599 431.4 146.699 431.6 146.699 431.8L158.999 493C159.299 493 159.599 492.9 159.899 492.9C160.199 492.8 160.399 492.6 160.599 492.5C160.899 492.2 161.199 492 161.599 491.8C162.099 491.5 162.699 491.3 163.299 491.3C163.799 491.3 164.199 491.5 164.599 491.7C164.999 492 165.299 492.3 165.399 492.7C165.599 493.1 165.799 493.4 166.099 493.6C166.599 494 167.199 494.2 167.799 494.4C168.999 494.7 169.999 495.3 170.799 496.2C171.099 496.6 171.399 497 171.599 497.4C171.699 497.7 171.899 497.9 172.099 498.2C172.199 498.1 172.299 498.1 172.499 498C172.899 497.7 173.199 497.3 173.399 496.8C173.799 496 174.399 495.3 175.099 494.8C175.799 494.1 176.799 493.7 177.799 493.6C178.299 493.7 178.799 493.8 179.199 494.1C179.599 494.4 179.999 494.7 180.299 495.2C180.499 495.5 180.599 495.6 180.699 495.8L180.899 496L181.399 496.2C181.699 496.3 181.999 496.4 182.199 496.5C182.699 496.6 183.099 496.8 183.499 497C185.299 497.9 186.899 499 188.399 500.4C189.799 501.7 191.199 502.9 192.699 503.9C193.799 504.7 194.999 505.6 196.099 506.6C197.399 507.7 198.899 508.5 200.499 509C200.899 509.1 201.299 509.1 201.599 509.2C202.899 509.3 204.399 509.5 205.399 511.7C205.599 512.2 205.699 512.8 205.599 513.4C205.599 513.6 205.599 513.9 205.599 514.1L205.899 514.3C206.499 514.5 206.899 514.9 207.299 515.4C208.099 516.6 208.499 518.6 205.699 521.1C205.099 521.8 204.199 522.2 203.299 522.2C202.199 522.2 201.399 521.4 200.499 520.6L200.199 520.3C199.399 519.7 198.899 518.8 198.599 517.9C198.499 517.3 198.699 516.7 198.999 516.2L199.099 516.1C198.899 516.2 198.599 516.2 198.399 516.3C197.799 516.6 197.099 516.7 196.499 516.7C194.699 516.7 193.799 515.6 193.099 514.6C192.799 514.2 192.599 513.8 192.399 513.4C192.099 512.7 191.599 512.1 190.999 511.7C189.499 511 187.999 510.5 186.499 510.2C186.299 510.2 186.099 510.1 185.999 510C185.899 509.9 185.699 509.7 185.699 509.6C185.599 509.4 185.599 509.2 185.599 509C185.599 508.8 185.599 508.6 185.699 508.4C185.999 507.7 185.299 505.7 184.499 505C183.899 504.5 183.199 504.3 182.399 504.3C181.799 504.3 181.299 504.4 180.699 504.6C180.599 504.6 180.499 504.7 180.299 504.7C180.099 504.7 179.799 504.6 179.599 504.5C179.399 504.4 179.199 504.2 179.099 504C178.599 503.8 178.099 503.8 177.599 503.8C177.599 504 177.499 504.3 177.399 504.5C177.199 504.9 176.799 505.2 176.399 505.4C175.999 505.6 175.499 505.7 175.099 505.6C174.399 505.6 173.699 505.5 173.099 505.2C171.799 504.7 170.599 503.9 169.599 502.9C168.699 502.2 167.599 501.7 166.499 501.4C164.899 501.1 163.499 500.3 162.399 499.1L162.299 499.2C161.999 499.6 161.599 499.8 161.199 500C160.799 500.2 160.299 500.3 159.799 500.3H159.599C158.999 500.2 158.499 500.1 157.899 499.8C157.399 499.5 156.899 499.1 156.599 498.7C155.999 498.9 155.399 499 154.799 499.1C153.899 499.2 153.099 499.4 152.299 499.7C151.599 500 150.699 500.2 149.899 500.2C148.899 500.2 147.899 499.9 146.899 499.5C146.499 499.4 146.099 499.2 145.699 499.1C145.399 499 144.999 499 144.699 499C144.399 499 144.099 499 143.799 499C143.499 499 143.099 499 142.799 499C142.099 499.1 141.499 498.9 140.799 498.6C140.199 498.3 139.699 497.8 139.299 497.3C138.999 496.7 138.899 496.1 138.899 495.5C138.899 495 138.899 495 138.499 494.8C137.999 494.6 137.499 494.5 136.999 494.6C136.699 494.6 136.499 494.6 136.199 494.6C136.199 494.8 136.299 495.1 136.299 495.3C136.399 495.9 136.499 496.5 136.699 497.1C136.799 497.3 136.799 497.4 136.899 497.6C137.099 497.9 137.199 498.3 137.299 498.7C137.299 499.1 137.299 499.5 137.199 499.9C136.999 500.3 136.699 500.6 136.399 500.8C136.099 501 135.699 501.2 135.299 501.3C134.899 501.4 134.499 501.5 133.999 501.5C133.599 501.5 133.299 501.5 132.899 501.4C132.599 501.4 132.299 501.3 132.099 501.3C131.899 501.3 131.699 501.3 131.499 501.4C130.999 501.7 130.599 502.2 130.299 502.7C130.099 503.1 129.799 503.6 129.499 504C128.499 505.2 127.299 506.2 126.099 507.2C125.999 507.3 122.599 509.4 121.499 509.4C121.299 509.4 121.099 509.4 120.899 509.3C120.599 509.2 120.299 509 119.999 508.7C119.799 508.4 119.599 508.1 119.499 507.7C119.299 506.3 120.599 505 121.999 503.7L121.799 503.5C121.599 503.3 121.399 503.1 121.199 502.9C121.099 502.7 120.999 502.4 120.899 502.1C120.899 501.8 120.999 501.6 121.099 501.3C121.199 501.1 121.399 500.8 121.599 500.7L121.699 500.3C121.799 499.3 122.099 498.3 122.499 497.3C122.999 496.1 123.699 495 124.599 494.2C124.199 494.4 123.899 494.7 123.599 495C123.399 495.3 123.299 495.6 123.099 495.9C122.799 496.5 122.499 497.1 121.999 497.6C121.599 498 121.199 498.3 120.599 498.5C120.399 498.6 120.199 498.7 120.099 498.8C119.199 499.6 118.499 500.6 117.999 501.7C117.799 502 117.699 502.3 117.499 502.6C116.999 503.4 116.499 504.1 115.799 504.7C115.399 505.1 114.999 505.6 114.599 506.1C114.499 506.2 114.499 506.4 114.399 506.4C114.599 506.5 114.799 506.6 114.999 506.6C115.399 506.7 115.699 506.9 116.099 507.1C116.299 507.2 116.399 507.3 116.499 507.5C116.599 507.7 116.699 507.8 116.699 508C116.699 508.2 116.699 508.4 116.699 508.6C116.599 508.8 116.499 509 116.399 509.1C116.099 509.6 115.799 510.1 115.699 510.6C115.499 511.4 115.199 512.1 114.699 512.8C114.199 513.5 113.499 514 112.599 514.2C112.299 514.3 111.999 514.4 111.799 514.6C111.599 514.8 111.399 515 111.299 515.2C110.999 515.7 110.499 516.1 109.999 516.5C109.599 516.7 109.199 516.9 108.699 517L108.299 517.1C108.299 517.2 108.199 517.4 108.199 517.5C108.199 518.1 107.999 518.7 107.699 519.2C106.699 520.8 104.699 522 102.899 522.9C102.599 523.1 102.299 523.2 101.999 523.3C101.599 523.4 101.299 523.6 100.899 523.8C100.799 523.9 100.699 524 100.599 524.1C100.499 524.3 100.399 524.6 100.299 524.8C100.199 524.9 100.199 525.1 100.099 525.2C99.8987 525.9 99.4987 526.4 98.8987 526.8C98.3987 527.2 97.7987 527.5 97.1987 527.6C96.9987 527.7 96.7987 527.7 96.6987 527.8C95.5987 528.3 94.5987 529 93.6987 529.7C91.8987 531 90.0987 532.4 87.9987 532.6C87.7987 532.6 87.5987 532.6 87.3987 532.6C86.7987 532.6 86.1987 532.5 85.6987 532.3C85.4987 532.2 85.2987 532.2 84.9987 532.1C84.6987 532.1 84.3987 532.2 84.1987 532.3C83.9987 532.4 83.7987 532.5 83.5987 532.7C82.9987 533.1 82.2987 533.4 81.4987 533.5H81.1987C80.4987 533.5 79.7987 533.2 79.2987 532.8C79.1987 532.7 79.0987 532.7 78.9987 532.6C78.7987 532.6 78.6987 532.6 78.4987 532.6C77.0987 532.8 75.6987 533.2 74.3987 533.9C73.3987 535.3 71.7987 535.8 70.1987 536.1ZM67.8987 475.2C66.6987 475.1 65.5987 474.6 64.6987 473.8C64.3987 473.5 63.9987 473.2 63.5987 473C63.2987 472.9 62.8987 472.8 62.5987 472.8C61.8987 472.8 61.1987 472.6 60.4987 472.3C59.9987 472.1 59.5987 471.7 59.2987 471.2C58.9987 470.7 58.9987 470.1 59.0987 469.6C59.1987 469.1 59.5987 468.7 59.9987 468.4C60.3987 468.1 60.8987 468 61.3987 468C61.6987 468 61.9987 468 62.1987 468.1H62.2987C62.7987 467.7 63.3987 467.4 63.9987 467.4C65.8987 467.4 67.4987 469.4 69.1987 471.7C69.4987 472.1 69.7987 472.5 69.8987 472.6C70.0987 472.7 70.1987 472.9 70.2987 473.1C70.3987 473.3 70.3987 473.5 70.3987 473.7C70.3987 473.9 70.2987 474.1 70.1987 474.3C70.0987 474.5 69.8987 474.6 69.6987 474.7C69.1987 475 68.4987 475.1 67.8987 475.2ZM72.1987 499.9C71.9987 499.9 71.8987 499.9 71.6987 499.8C69.3987 498.8 68.1987 495.7 68.5987 493.5C68.5987 493.3 68.6987 493.2 68.7987 493C68.8987 492.9 68.9987 492.7 69.1987 492.6C69.3987 492.5 69.6987 492.4 69.8987 492.4C69.9987 492.4 70.0987 492.4 70.1987 492.4C70.3987 492.5 70.9987 492.6 71.5987 492.7L71.6987 492.6C72.1987 492.2 72.7987 491.9 73.3987 491.9C73.6987 491.9 73.8987 492 74.1987 492.1C74.3987 492.2 74.6987 492.4 74.7987 492.6C75.0987 493.1 75.1987 493.6 75.2987 494.1C75.3987 494.6 75.2987 495.2 75.1987 495.7C74.7987 497 74.1987 498.2 73.3987 499.3C73.2987 499.5 73.0987 499.6 72.8987 499.7C72.5987 499.9 72.3987 499.9 72.1987 499.9ZM113.499 522.7C112.899 522.7 112.399 522.5 111.899 522.2C111.399 521.9 110.999 521.4 110.799 520.9C110.499 520.4 110.399 519.8 110.399 519.2C110.299 518.6 110.399 518 110.599 517.5C110.799 517 111.099 516.5 111.499 516.1C111.899 515.8 112.399 515.5 112.899 515.2C113.299 515 113.699 514.8 113.999 514.5C114.299 514.2 114.699 513.9 114.999 513.5C115.299 513.1 115.499 513 115.799 512.7C116.099 512.4 116.299 512.2 116.499 511.9C117.199 511 118.199 509.7 119.899 509.7H120.099C120.399 509.7 120.599 509.8 120.799 510C120.999 510.2 121.099 510.4 121.199 510.7L121.599 512.4C121.599 512.5 121.599 512.6 121.599 512.7C121.599 513.2 121.499 513.8 121.299 514.3C121.199 514.6 121.099 515 121.099 515.4C121.099 515.6 121.099 515.9 121.099 516.1C121.299 517 121.099 517.9 120.699 518.6C120.199 519.5 118.099 521.6 116.499 521.6C116.199 521.6 115.899 521.5 115.599 521.4C115.299 521.8 114.999 522.1 114.499 522.3C114.399 522.5 113.999 522.7 113.499 522.7ZM186.099 517.8C185.999 517.8 185.899 517.8 185.899 517.8C184.899 517.5 184.099 516.9 183.499 516C183.199 515.6 182.799 515.2 182.299 514.9C181.999 514.8 181.799 514.7 181.499 514.7C180.899 514.6 180.299 514.3 179.799 513.9C179.299 513.5 178.999 512.9 178.799 512.3C178.699 511.8 178.599 511.2 178.699 510.7C178.699 510.5 178.699 510.3 178.699 510.1L177.999 510C177.299 509.9 176.699 509.6 176.099 509.2C175.599 508.8 175.199 508.3 175.099 507.7C174.899 507.1 174.999 506.4 175.199 505.9C175.499 505.2 175.999 504.6 176.599 504.2C177.199 503.8 177.999 503.6 178.699 503.6C178.899 503.6 179.099 503.6 179.299 503.7C179.399 503.7 179.399 503.7 179.499 503.8L181.999 504.6C184.099 505.1 185.199 507.7 185.799 509.7C185.999 510.3 186.099 511 186.199 511.6C186.299 512.1 186.399 512.6 186.499 513C186.599 513.3 186.699 513.5 186.799 513.8C187.299 514.9 187.399 516.1 187.099 517.2C186.999 517.4 186.899 517.7 186.699 517.8C186.599 517.7 186.399 517.8 186.099 517.8ZM198.799 523.8C196.499 523.8 193.299 522.9 191.499 521L191.199 520.7C189.399 518.8 187.499 516.6 188.199 514.7C188.399 514 189.099 513.2 190.899 512.9H191.099C191.399 512.9 191.699 513 191.899 513.2L193.399 514.5C193.899 514.7 194.299 514.9 194.899 515C195.999 515.2 196.999 515.7 197.799 516.5C199.199 517.9 200.599 520.5 200.199 522.7C200.199 523 199.999 523.3 199.799 523.5C199.499 523.7 199.199 523.8 198.799 523.8ZM54.1987 542.8C53.7987 542.8 53.3987 542.6 52.9987 542.3C52.6987 542 52.4987 541.6 52.4987 541.2C52.3987 539.8 56.2987 536.4 56.8987 536.3C57.0987 536.3 57.2987 536.2 57.4987 536.2C57.9987 536.2 58.4987 536.4 58.8987 536.6C59.2987 536.9 59.6987 537.2 59.8987 537.6C60.0987 537.8 60.3987 538.2 60.4987 538.2H60.5987C61.1987 537.6 61.5987 536.8 61.6987 535.9C61.6987 535.6 61.7987 535.3 62.0987 535.1C62.2987 534.9 62.5987 534.7 62.8987 534.7C63.3987 534.7 63.8987 534.7 64.4987 534.7H65.2987C65.3987 534.5 65.5987 534.4 65.6987 534.3C65.8987 534.2 66.0987 534.2 66.2987 534.2C66.4987 534.2 66.5987 534.2 66.7987 534.3C66.9987 534.4 67.0987 534.4 67.1987 534.6C67.2987 534.7 67.3987 534.8 67.4987 535C67.5987 535.2 67.5987 535.3 67.5987 535.5C67.5987 536.9 67.6987 538.6 65.5987 539.3C65.3987 539.4 65.2987 539.4 65.0987 539.4C64.9987 539.4 64.7987 539.4 64.6987 539.3C64.5987 539.5 64.4987 539.7 64.3987 539.8C64.0987 540.3 63.6987 540.7 63.1987 540.9C62.6987 541.2 62.1987 541.3 61.5987 541.3H61.3987C61.1987 541.3 61.0987 541.4 60.8987 541.4C60.4987 541.5 59.9987 541.6 59.5987 541.6C58.9987 541.6 58.4987 541.4 57.9987 541L57.4987 541.3C55.9987 542.3 54.9987 542.8 54.1987 542.8ZM70.6987 540.3C69.9987 540.2 69.2987 539.8 68.8987 539.3C68.7987 539.2 68.7987 539.1 68.6987 539.1H68.3987C68.0987 539.1 67.8987 539 67.5987 538.9C67.4987 538.8 67.2987 538.7 67.2987 538.5C67.1987 538.4 67.1987 538.2 67.0987 538C66.9987 537.3 67.0987 536.6 67.1987 535.9C67.1987 535.7 67.2987 535.6 67.3987 535.4C67.4987 535.3 67.5987 535.1 67.7987 535C68.0987 534.8 68.5987 534.7 68.9987 534.7C69.3987 534.7 69.7987 534.8 70.1987 535C70.3987 535.1 70.5987 535.2 70.6987 535.4L70.7987 535.5C71.2987 535.7 71.6987 536 71.9987 536.5C72.1987 537 72.3987 537.5 72.3987 538C72.3987 538.5 72.2987 539 72.0987 539.5C71.9987 539.7 71.7987 539.9 71.5987 540.1C71.3987 540.3 71.0987 540.3 70.8987 540.3H70.6987ZM112.999 528H112.699C111.999 527.9 110.199 527 109.899 525.8C109.799 525.5 109.799 525.1 109.799 524.8C109.899 524.5 109.999 524.1 110.199 523.9C110.499 523.6 110.899 523.4 111.299 523.2C111.699 523 112.099 523 112.599 523H113.099L113.299 522.9C113.699 522.7 114.099 522.5 114.499 522.5C114.899 522.5 115.199 522.6 115.599 522.8C115.899 523 116.199 523.2 116.399 523.5C116.599 523.7 116.599 524 116.599 524.3C116.599 524.6 116.499 524.9 116.299 525.1C115.999 525.4 115.799 525.7 115.699 526.1C115.499 526.6 115.199 527.1 114.699 527.4C114.099 527.8 113.599 528 112.999 528ZM78.0987 538.5C77.8987 538.5 77.5987 538.5 77.3987 538.4C77.1987 538.3 76.9987 538.2 76.7987 538C76.5987 537.7 76.4987 537.5 76.3987 537.1C76.2987 536.8 76.3987 536.5 76.3987 536.2C76.3987 536.1 76.3987 536 76.3987 535.8C76.3987 535.5 76.3987 535.3 76.4987 535C76.5987 534.8 76.7987 534.6 77.0987 534.5L78.1987 534C78.3987 533.9 78.5987 533.9 78.7987 533.9H78.9987C79.4987 533.9 79.8987 534.1 80.2987 534.4C80.5987 534.7 80.8987 535.1 80.8987 535.6C80.8987 536.2 80.7987 536.7 80.3987 537.2C80.0987 537.7 79.5987 538 79.0987 538.2C78.7987 538.4 78.4987 538.5 78.0987 538.5ZM48.1987 541.7C47.8987 541.7 47.5987 541.6 47.3987 541.4C47.1987 541.2 47.0987 541 46.9987 540.7C46.9987 540.4 46.9987 540.2 47.0987 539.9C47.1987 539.7 47.3987 539.5 47.6987 539.3L48.0987 539.1C48.2987 539 48.4987 539 48.6987 539C48.9987 539 49.1987 539.1 49.4987 539.3C49.6987 539.5 49.8987 539.7 49.9987 540C50.0987 540.3 50.0987 540.5 49.9987 540.8C49.8987 541.1 49.6987 541.3 49.4987 541.4L49.0987 541.6C48.6987 541.6 48.4987 541.7 48.1987 541.7ZM45.6987 543.9C45.0987 543.9 44.4987 543.7 43.8987 543.4C43.3987 543 42.9987 542.5 42.8987 541.9C42.7987 541.7 42.7987 541.6 42.7987 541.4C42.7987 541.2 42.8987 541.1 42.9987 540.9C43.0987 540.7 43.1987 540.6 43.3987 540.5C43.4987 540.4 43.6987 540.3 43.8987 540.3C44.1987 540.2 44.5987 540.2 44.8987 540.1C45.8987 540 46.7987 539.7 47.6987 539.3C47.8987 539.2 48.0987 539.2 48.2987 539.2H48.3987C48.7987 539.2 49.1987 539.3 49.4987 539.5C49.7987 539.7 49.9987 540.1 50.0987 540.4C50.3987 542 48.0987 543.3 48.0987 543.3C47.2987 543.7 46.4987 543.9 45.6987 543.9ZM38.5987 544.1C37.2987 544.1 35.7987 543.3 35.7987 542.1C35.7987 541.7 35.9987 541.3 36.1987 541.1C36.4987 540.8 36.7987 540.6 37.1987 540.6C37.3987 540.4 37.5987 540.3 37.7987 540.2C37.9987 540.1 38.1987 540.1 38.4987 540.1C38.7987 540.1 39.0987 540.2 39.3987 540.3C39.6987 540.5 39.8987 540.7 39.9987 541C40.1987 541.4 40.2987 541.8 40.2987 542.3C40.2987 542.7 40.1987 543.2 39.9987 543.6C39.8987 543.8 39.7987 543.9 39.5987 544C39.3987 544.1 39.2987 544.2 39.0987 544.2C38.9987 544.2 38.7987 544.2 38.5987 544.1ZM32.8987 544.9C31.5987 544.9 30.8987 543.8 30.3987 542.9C29.3987 542.8 28.4987 542.5 27.5987 542.1L27.0987 541.9C26.8987 541.8 26.6987 541.7 26.5987 541.5C26.4987 541.3 26.3987 541.1 26.3987 540.9C26.3987 540.7 26.3987 540.5 26.4987 540.3C26.5987 540.1 26.6987 539.9 26.8987 539.8C27.9987 538.9 29.3987 538.2 30.7987 537.9H30.9987C31.1987 537.9 31.3987 537.9 31.5987 538L31.9987 538.2C32.4987 538.3 32.8987 538.5 33.1987 538.8C33.5987 539.2 33.7987 539.6 33.8987 540.2C34.2987 540.3 34.6987 540.6 34.9987 540.9C35.2987 541.2 35.4987 541.6 35.5987 542C35.6987 542.5 35.6987 543 35.4987 543.5C35.2987 544 34.8987 544.3 34.4987 544.6C33.9987 544.7 33.4987 544.9 32.8987 544.9ZM20.7987 542.2C20.4987 542.2 20.2987 542.2 19.9987 542.1H19.7987C18.8987 542 18.0987 541.6 17.3987 541.1C17.1987 540.9 16.9987 540.8 16.6987 540.7C16.4987 540.6 16.2987 540.6 15.9987 540.6C15.6987 540.6 15.2987 540.6 14.8987 540.7C14.4987 540.8 14.0987 540.8 13.5987 540.8H13.0987C12.7987 540.8 12.5987 540.6 12.3987 540.5C12.1987 540.3 12.0987 540.1 11.9987 539.8C11.8987 539.4 11.8987 538.9 11.9987 538.5C12.0987 538.1 12.2987 537.7 12.5987 537.3C12.8987 537 13.1987 536.7 13.5987 536.6C13.9987 536.4 14.3987 536.4 14.7987 536.4C15.3987 536.4 15.8987 536.5 16.3987 536.8C16.8987 537.1 17.2987 537.3 17.6987 537.6C18.2987 538.1 19.0987 538.4 19.8987 538.4C20.0987 538.1 20.2987 537.9 20.5987 537.7C20.8987 537.5 21.1987 537.5 21.4987 537.5C21.8987 537.5 22.1987 537.6 22.4987 537.8C22.7987 538 23.0987 538.2 23.2987 538.5C23.4987 538.8 23.6987 539.2 23.6987 539.5C23.7987 539.9 23.6987 540.2 23.5987 540.6C23.3987 541.2 22.9987 541.6 22.5987 542C21.9987 542.1 21.3987 542.3 20.7987 542.2ZM2.8987 537.3C2.5987 537.3 2.2987 537.2 2.0987 537L1.7987 536.8C0.998697 536.1 -0.201303 535.2 -0.00130311 534C0.0986969 533.6 0.198697 533.3 0.498697 533C0.798697 532.7 1.0987 532.5 1.3987 532.4C1.4987 532.3 1.6987 532.3 1.8987 532.3C2.1987 532.3 2.3987 532.4 2.5987 532.5C2.7987 532.6 2.8987 532.8 2.9987 533C3.1987 533.1 3.2987 533.2 3.3987 533.4C3.4987 533.6 3.5987 533.7 3.5987 533.9C3.6987 534.4 3.7987 534.8 3.9987 535.2L4.0987 535.5C4.1987 535.8 4.1987 536 4.0987 536.3C3.9987 536.6 3.7987 536.8 3.5987 536.9C3.3987 537.2 3.1987 537.3 2.8987 537.3ZM48.2987 540.4C48.3987 540.3 48.4987 540.3 48.5987 540.2L48.2987 540.4Z" fill="#F4A899"><title>Alaska</title></path>

</g>
<defs>
<clipPath id="clip0_917_45353">
<rect width="906.5" height="560.1" fill="white"/>
</clipPath>
</defs>
</svg>